<svg width="48" height="24" viewBox="0 0 48 24" fill="none" xmlns="http://www.w3.org/2000/svg">
<g clip-path="url(#clip0_2782_16496)">
<path d="M41.2728 -8.01086e-05C41.2728 0.55492 41.3168 1.01992 41.2528 1.46892C41.2258 1.65992 41.0028 1.86492 40.8198 1.97992C39.9328 2.54292 38.9698 2.99292 38.1428 3.63892C35.4668 5.73092 33.8808 8.48492 33.7938 12.0629C33.7698 13.0779 34.1438 13.3329 34.9958 12.9359C37.4588 11.7939 40.1078 12.4639 41.5208 14.5859C43.0618 16.9019 42.8448 19.9859 40.9978 22.0079C38.6398 24.5899 34.7578 24.6679 32.0808 22.1999C30.4778 20.7219 29.7158 18.8139 29.5258 16.6429C28.8888 9.37192 32.5358 3.37792 39.1748 0.744921C39.8318 0.484921 40.5048 0.27092 41.2728 -8.01086e-05Z" fill="white"/>
</g>
<g clip-path="url(#clip1_2782_16496)">
<path d="M17.2728 -8.01086e-05C17.2728 0.55492 17.3168 1.01992 17.2528 1.46892C17.2258 1.65992 17.0028 1.86492 16.8198 1.97992C15.9328 2.54292 14.9698 2.99292 14.1428 3.63892C11.4668 5.73092 9.88079 8.48492 9.79379 12.0629C9.76979 13.0779 10.1438 13.3329 10.9958 12.9359C13.4588 11.7939 16.1078 12.4639 17.5208 14.5859C19.0618 16.9019 18.8448 19.9859 16.9978 22.0079C14.6398 24.5899 10.7578 24.6679 8.08079 22.1999C6.47779 20.7219 5.71579 18.8139 5.52579 16.6429C4.88879 9.37192 8.53579 3.37792 15.1748 0.744921C15.8318 0.484921 16.5048 0.27092 17.2728 -8.01086e-05Z" fill="white"/>
</g>
<defs>
<clipPath id="clip0_2782_16496">
<rect width="24" height="24" fill="white" transform="matrix(-1 0 0 -1 48 24)"/>
</clipPath>
<clipPath id="clip1_2782_16496">
<rect width="24" height="24" fill="white" transform="matrix(-1 0 0 -1 24 24)"/>
</clipPath>
</defs>
</svg>
