<svg width="60" height="60" viewBox="0 0 60 60" fill="none" xmlns="http://www.w3.org/2000/svg">
<path fill-rule="evenodd" clip-rule="evenodd" d="M11.415 24.8532C11.415 24.0815 11.473 22.1845 11.5843 20.5379C11.6611 19.402 11.7677 18.3727 11.9067 17.8725C12.7811 14.7251 14.7608 12.205 17.3663 10.4375C20.0913 8.58891 23.5032 7.56879 27.0401 7.52533C29.0577 7.50055 30.985 7.81921 32.7672 8.42639C34.622 9.05826 36.3243 10.0024 37.8124 11.1971C38.8447 12.0258 39.8204 13.1902 40.6439 14.5678C41.4359 15.8928 42.0916 17.4184 42.5242 19.0329C43.3204 22.0046 43.5742 24.59 43.1524 27.4858C43.1002 27.8441 43.0377 28.2067 42.9644 28.575L37.0293 26.4412V26.2399C37.0293 25.2073 36.1915 24.3696 35.1589 24.3696C34.5076 24.3696 33.9339 24.7028 33.5989 25.208L23.9487 21.7387C23.114 21.4386 22.2047 21.7716 21.746 22.4887C21.6427 22.6369 21.5627 22.8046 21.5125 22.988L17.9696 35.9319C17.4218 36.1965 17.0437 36.7575 17.0437 37.4064C17.0437 39.0142 17.6775 40.544 18.8142 41.6806C19.9509 42.8173 21.4807 43.4511 23.0885 43.4511C24.6962 43.4511 26.2261 42.8173 27.3627 41.6806C28.4994 40.5439 29.1332 39.0142 29.1332 37.4064C29.1332 36.7575 28.7551 36.1965 28.2073 35.9318L25.5676 26.2875L33.2885 29.0632V48.1037L27.4113 52.409H21.7039C21.1874 52.409 20.7687 51.9903 20.7687 51.4738C20.7687 50.2892 20.864 49.2531 20.9431 48.3921C20.9931 47.8487 21.0358 47.3838 21.0358 46.9642C21.0358 46.2684 20.7284 45.9806 19.2956 45.9806C18.6146 45.9806 18.094 45.9952 17.5797 46.0097C14.7256 46.0901 12.0298 46.1659 10.9421 44.2866L10.9405 44.2875C10.6379 43.7634 10.5801 42.3424 10.6507 40.7107C10.7185 39.1414 10.8869 37.3084 11.0551 35.9708C9.4415 35.9685 8.64844 35.9645 7.72729 34.8975C7.54289 34.6844 7.4722 34.4116 7.50974 34.153C7.76722 32.0678 11.4149 26.0267 11.4149 24.8532L11.415 24.8532ZM41.9746 32.186C41.4275 33.7955 40.7093 35.5523 39.8046 37.5351C39.1553 38.9583 38.5483 40.6918 38.0996 42.941C37.7889 44.4979 37.5566 46.2976 37.4418 48.406L37.0293 48.1037V30.4081L41.9745 32.1859L41.9746 32.186ZM21.4016 35.7698H24.7754L23.0885 29.6067L21.4016 35.7698Z" fill="white"/>
<path d="M34.2236 26.2398C34.2236 25.7234 34.6424 25.3046 35.1588 25.3046C35.6753 25.3046 36.0941 25.7234 36.0941 26.2398V51.5408C36.0941 52.0573 35.6753 52.4761 35.1588 52.4761C34.6424 52.4761 34.2236 52.0573 34.2236 51.5408V26.2398Z" fill="white"/>
<path d="M47.3139 31.1324C47.7981 31.3058 48.0499 31.8391 47.8765 32.3233C47.703 32.8075 47.1698 33.0593 46.6856 32.8858L23.0041 24.3721C22.5199 24.1986 22.2681 23.6654 22.4415 23.1812C22.615 22.697 23.1483 22.4452 23.6325 22.6187L47.3139 31.1324Z" fill="white"/>
<path d="M46.7168 32.1286C46.8182 31.7564 47.2022 31.5368 47.5744 31.6382C47.9466 31.7396 48.1662 32.1235 48.0648 32.4957L44.2501 46.4327C44.1487 46.8049 43.7648 47.0246 43.3926 46.9232C43.0204 46.8218 42.8008 46.4378 42.9022 46.0656L46.7168 32.1286Z" fill="white"/>
<path d="M46.7166 32.4959C46.6152 32.1237 46.8348 31.7397 47.207 31.6383C47.5792 31.5369 47.9632 31.7565 48.0646 32.1287L51.8793 46.0657C51.9806 46.4379 51.761 46.8219 51.3888 46.9233C51.0166 47.0247 50.6327 46.805 50.5313 46.4329L46.7166 32.4959Z" fill="white"/>
<path d="M47.3904 45.5988H51.7986C52.1859 45.5988 52.5 45.9128 52.5 46.3002C52.5 47.7111 51.928 48.9886 51.0033 49.9132C50.0787 50.8378 48.8013 51.4098 47.3904 51.4098C45.9795 51.4098 44.702 50.8378 43.7774 49.9132C42.8527 48.9886 42.2808 47.7111 42.2808 46.3002C42.2808 45.9128 42.5948 45.5988 42.9822 45.5988H47.3904Z" fill="white"/>
<path d="M22.4149 23.6019C22.3135 23.2297 22.5331 22.8457 22.9053 22.7444C23.2775 22.643 23.6615 22.8626 23.7628 23.2348L27.5775 37.1718C27.6789 37.544 27.4593 37.928 27.0871 38.0293C26.7149 38.1307 26.3309 37.9111 26.2295 37.5389L22.4149 23.6019V23.6019Z" fill="white"/>
<path d="M23.0886 36.7049H27.4968C27.8842 36.7049 28.1982 37.0189 28.1982 37.4063C28.1982 38.8172 27.6262 40.0946 26.7016 41.0193C25.7769 41.944 24.4995 42.5159 23.0886 42.5159C21.6777 42.5159 20.4003 41.9439 19.4756 41.0193C18.5509 40.0946 17.979 38.8172 17.979 37.4063C17.979 37.0189 18.2931 36.7049 18.6804 36.7049H23.0886H23.0886Z" fill="white"/>
<path fill-rule="evenodd" clip-rule="evenodd" d="M41.4153 52.4759H28.9023L35.1589 47.8928L41.4153 52.4759Z" fill="white"/>
<path d="M23.7625 23.6019C23.8639 23.2297 23.6443 22.8457 23.2721 22.7444C22.8999 22.643 22.516 22.8626 22.4146 23.2348L18.5999 37.1718C18.4985 37.544 18.7181 37.928 19.0903 38.0293C19.4625 38.1307 19.8465 37.9111 19.9479 37.5389L23.7625 23.6019V23.6019Z" fill="white"/>
</svg>
