<svg width="60" height="60" viewBox="0 0 60 60" fill="none" xmlns="http://www.w3.org/2000/svg">
<path d="M18.0148 16.4531C18.3372 16.4531 18.6292 16.5839 18.8405 16.7952C19.0517 17.0065 19.1825 17.2984 19.1825 17.6208C19.1825 17.9431 19.0517 18.2351 18.8405 18.4464C18.6292 18.6577 18.3372 18.7885 18.0148 18.7885C17.6924 18.7885 17.4005 18.6577 17.1892 18.4464C16.9779 18.2351 16.8472 17.9431 16.8472 17.6208C16.8472 17.2984 16.9779 17.0065 17.1892 16.7952C17.4005 16.5839 17.6924 16.4531 18.0148 16.4531Z" fill="white"/>
<path d="M37.7351 16.7951C37.9464 16.5838 38.2384 16.4531 38.5607 16.4531C38.8831 16.4531 39.1751 16.5838 39.3864 16.7951C39.5976 17.0064 39.7284 17.2983 39.7284 17.6207C39.7284 17.9431 39.5976 18.2351 39.3864 18.4463C39.1751 18.6576 38.8831 18.7884 38.5607 18.7884C38.2384 18.7884 37.9464 18.6576 37.7351 18.4463C37.5238 18.2351 37.3931 17.9431 37.3931 17.6207C37.3931 17.2984 37.5238 17.0064 37.7351 16.7951Z" fill="white"/>
<path d="M22.1641 13.973C22.743 13.973 23.2672 14.2077 23.6466 14.5871C24.026 14.9665 24.2607 15.4907 24.2607 16.0696C24.2607 16.6485 24.026 17.1727 23.6466 17.5521C23.2672 17.9315 22.743 18.1663 22.1641 18.1663C21.5852 18.1663 21.061 17.9315 20.6815 17.5521C20.3021 17.1727 20.0674 16.6485 20.0674 16.0696C20.0674 15.4907 20.3021 14.9665 20.6815 14.5871C21.0609 14.2077 21.5852 13.973 22.1641 13.973Z" fill="white"/>
<path d="M32.9291 14.5871C33.3085 14.2077 33.8327 13.973 34.4116 13.973C34.9905 13.973 35.5147 14.2077 35.8941 14.5871C36.2735 14.9665 36.5083 15.4907 36.5083 16.0696C36.5083 16.6485 36.2735 17.1727 35.8941 17.5521C35.5147 17.9315 34.9905 18.1663 34.4116 18.1663C33.8327 18.1663 33.3085 17.9315 32.9291 17.5521C32.5497 17.1727 32.3149 16.6485 32.3149 16.0696C32.3149 15.4907 32.5497 14.9665 32.9291 14.5871Z" fill="white"/>
<path d="M28.2879 11.25C29.1232 11.25 29.8798 11.5887 30.4273 12.1362C30.9748 12.6838 31.3135 13.4402 31.3135 14.2757C31.3135 15.1111 30.9748 15.8676 30.4273 16.4151C29.8798 16.9626 29.1232 17.3013 28.2879 17.3013C27.4525 17.3013 26.696 16.9626 26.1485 16.4151C25.6009 15.8675 25.2622 15.1111 25.2622 14.2757C25.2622 13.4402 25.6009 12.6838 26.1485 12.1362C26.696 11.5887 27.4525 11.25 28.2879 11.25Z" fill="white"/>
<path d="M46.2335 24.2043C46.651 24.2043 46.9895 24.5428 46.9895 24.9603C46.9895 25.3778 46.651 25.7162 46.2335 25.7162C45.3748 25.7162 44.552 25.569 43.8044 25.321C42.9834 25.0486 42.2571 24.6521 41.6766 24.1939C41.2069 23.8232 40.8272 23.4082 40.5627 22.98C40.2724 22.5102 40.1138 22.0199 40.1138 21.5421C40.1138 21.1246 40.4523 20.7861 40.8697 20.7861C41.729 20.7861 42.4626 20.9512 42.7892 21.4798C42.963 21.7613 44.1885 21.5902 44.5193 21.8513C44.9685 22.2058 44.9269 22.4164 45.5762 22.6318C46.1674 22.8279 45.5298 24.2043 46.2335 24.2043L46.2335 24.2043Z" fill="white"/>
<path d="M41.257 23.2568C41.5359 23.5667 41.5108 24.044 41.2009 24.3228C40.7323 24.7438 40.1652 25.1043 39.5317 25.3529C38.948 25.5818 38.3095 25.7162 37.6411 25.7162C37.2236 25.7162 37.9351 25.3777 37.9351 24.9602C37.9351 24.5428 37.8798 23.3578 38.2972 23.3578C38.7728 23.3578 38.7927 22.1209 39.2055 21.9589C39.6628 21.7796 41.1867 23.1787 41.257 23.2568L41.257 23.2568Z" fill="white"/>
<path d="M42.4209 20.4529C43.8055 20.4529 45.0591 21.0142 45.9665 21.9216C46.8739 22.829 47.4352 24.0826 47.4352 25.4672C47.4352 26.872 46.8398 28.4725 45.8901 29.6652C44.9981 30.7853 43.784 31.5706 42.4209 31.5706C41.058 31.5706 39.8439 30.7853 38.9519 29.6652C38.0021 28.4725 37.4067 26.872 37.4067 25.4672C37.4067 24.0826 37.968 22.829 38.8754 21.9216C39.7828 21.0142 41.0364 20.4529 42.4209 20.4529ZM44.8975 22.9906C44.2638 22.3569 43.3881 21.9649 42.4209 21.9649C41.4538 21.9649 40.5781 22.3569 39.9444 22.9906C39.3107 23.6244 38.9187 24.5 38.9187 25.4672C38.9187 26.5461 39.3866 27.7887 40.1331 28.7261C40.7569 29.5095 41.5643 30.0586 42.4209 30.0586C43.2777 30.0586 44.085 29.5095 44.7089 28.7261C45.4553 27.7887 45.9233 26.5461 45.9233 25.4672C45.9233 24.5 45.5312 23.6244 44.8975 22.9906H44.8975Z" fill="white"/>
<path fill-rule="evenodd" clip-rule="evenodd" d="M44.3258 32.0424L44.3015 32.0858C44.2814 32.1215 44.266 32.1597 44.2551 32.1993C43.89 33.5354 44.3159 33.4546 42.4596 33.4546C40.6086 33.4546 40.9482 33.544 40.5876 32.2073C40.5406 32.0331 40.4085 31.8953 40.2333 31.8473C39.4342 31.6285 38.2199 32.2419 37.55 32.6344C37.2606 32.804 36.9779 32.9856 36.7009 33.1747C36.1929 33.5217 35.6979 33.8972 35.2272 34.2934C34.9046 34.565 34.5439 34.8786 34.2693 35.1992C33.6611 35.9089 33.167 36.7046 32.8314 37.5784C32.5234 38.3803 32.3598 39.2164 32.3423 40.073L32.3426 40.2267C32.3426 40.2577 32.3453 40.2886 32.3511 40.319L33.2436 45.0261C33.3158 45.4066 33.4161 45.851 33.6854 46.1452C33.9715 46.4578 34.362 46.6433 34.7881 46.6433C35.2141 46.6433 35.6046 46.4578 35.8907 46.1452C36.1576 45.8536 36.31 45.4754 36.3275 45.0824L36.3274 45.0065C36.3273 44.9755 36.3246 44.9446 36.3189 44.9142L35.4231 40.1905L35.4235 40.165C35.4327 39.4888 35.5948 38.8391 35.958 38.2645C36.0625 38.0993 36.1812 37.9435 36.3117 37.7981L36.7323 37.3295L36.7511 37.9589C36.7881 39.1996 37.035 40.4285 37.2756 41.6427C37.7091 43.8315 38.0771 45.8776 37.6393 48.1097C37.5859 48.382 37.7646 48.6466 38.0368 48.6997C38.1629 48.721 38.3625 48.7177 38.4938 48.7212C38.8306 48.7303 39.1678 48.7345 39.5047 48.7382C40.47 48.7485 41.4358 48.7505 42.4011 48.7499C43.3717 48.7494 44.3425 48.7461 45.3129 48.7361C45.6499 48.7326 45.9872 48.7286 46.3241 48.721C46.4599 48.7179 46.6455 48.7219 46.7782 48.7035C47.0528 48.6644 47.2445 48.4101 47.205 48.1353C46.8628 45.7511 47.2083 43.529 47.6215 41.1875C47.8109 40.115 48.0134 39.0167 48.0656 37.9279L48.0946 37.3239L48.5031 37.7697C48.6437 37.9232 48.7712 38.0884 48.8825 38.2645C49.2585 38.8592 49.4779 39.5085 49.4165 40.2194L49.0199 44.8095C49.0182 44.8291 49.0165 44.8491 49.0165 44.8687C49.0165 45.2889 49.1709 45.6975 49.455 46.0079C49.7411 46.3205 50.1316 46.506 50.5577 46.506C50.9838 46.506 51.3743 46.3205 51.6604 46.0079C51.9396 45.7028 52.0645 45.2867 52.0994 44.882L52.4965 40.2864C52.4982 40.2668 52.4999 40.2468 52.4999 40.2271C52.4999 39.3166 52.3357 38.4283 52.0092 37.5785C51.6735 36.7046 51.1794 35.9089 50.5713 35.1992C50.4747 35.0865 50.3492 34.9759 50.2379 34.878C50.0499 34.7125 49.8549 34.5535 49.6585 34.3981C49.1475 33.9936 48.6171 33.6069 48.0786 33.2399C47.6262 32.9316 47.1615 32.6322 46.6845 32.3632C46.3314 32.1641 45.9385 31.9576 45.5538 31.828C45.203 31.7099 44.7611 31.6352 44.4543 31.8979C44.4046 31.9405 44.3616 31.9885 44.3258 32.0424L44.3258 32.0424Z" fill="white"/>
<path d="M45.0965 32.6041C45.3753 32.9123 45.3515 33.3883 45.0433 33.6672C44.8441 33.8474 44.5747 33.9012 44.3338 33.8334H40.508C40.3746 33.8709 40.2326 33.8711 40.0986 33.8334H40.0983V33.8333C39.9902 33.8028 39.8874 33.7476 39.7985 33.6672C39.4902 33.3883 39.4664 32.9123 39.7453 32.6041C39.7466 32.6027 40.2037 32.1111 40.3752 30.9784C40.4372 30.5658 40.822 30.2816 41.2346 30.3435H43.6073C44.0198 30.2816 44.4046 30.5658 44.4666 30.9784C44.6381 32.1111 45.0952 32.6027 45.0965 32.6041H45.0965Z" fill="white"/>
<path fill-rule="evenodd" clip-rule="evenodd" d="M19.0915 32.5889L19.068 32.6309C19.0486 32.6655 19.0336 32.7025 19.0232 32.7407C18.6699 34.0331 19.0819 35.9049 17.2864 35.9049C15.4959 35.9049 15.8244 34.0414 15.4756 32.7484C15.4302 32.5799 15.3024 32.4466 15.1329 32.4002C14.3599 32.1886 13.1853 32.7819 12.5374 33.1616C12.2574 33.3256 11.9839 33.5013 11.7161 33.6842C11.2246 34.0199 10.7458 34.3831 10.2905 34.7664C9.97848 35.0291 9.62962 35.3324 9.36398 35.6424C8.7757 36.329 8.29776 37.0987 7.97309 37.9439C7.67512 38.7195 7.51692 39.5282 7.5 40.3569L7.50024 40.5056C7.50028 40.5355 7.50291 40.5654 7.50848 40.5948L8.37185 45.1479C8.44168 45.516 8.53874 45.9458 8.79916 46.2304C9.07591 46.5328 9.4536 46.7122 9.86575 46.7122C10.2779 46.7122 10.6556 46.5328 10.9323 46.2304C11.1905 45.9484 11.3379 45.5826 11.3548 45.2024L11.3547 45.1289C11.3547 45.099 11.352 45.069 11.3465 45.0397L10.48 40.4705L10.4804 40.4459C10.4893 39.7918 10.6461 39.1633 10.9974 38.6075C11.0985 38.4477 11.2133 38.297 11.3396 38.1563L11.7464 37.703L11.7646 38.3119C11.8003 39.512 12.0392 40.7007 12.2719 41.8752C12.6913 43.9924 13.0472 45.9716 12.6237 48.1306C12.5721 48.3941 12.7449 48.65 13.0082 48.7014C13.1302 48.7219 13.3233 48.7188 13.4503 48.7222C13.776 48.7309 14.1022 48.735 14.4281 48.7385C15.3618 48.7486 16.296 48.7505 17.2298 48.75C18.1686 48.7494 19.1076 48.7462 20.0463 48.7365C20.3723 48.7332 20.6985 48.7293 21.0245 48.7219C21.1558 48.719 21.3353 48.7228 21.4637 48.705C21.7293 48.6672 21.9147 48.4212 21.8765 48.1555C21.5455 45.8492 21.8797 43.6998 22.2794 41.4349C22.4626 40.3975 22.6584 39.3351 22.709 38.2819L22.737 37.6976L23.1321 38.1289C23.2682 38.2774 23.3915 38.4372 23.4992 38.6074C23.8628 39.1827 24.0751 39.8107 24.0157 40.4984L23.6321 44.9384C23.6304 44.9573 23.6288 44.9767 23.6288 44.9957C23.6288 45.4021 23.7782 45.7974 24.053 46.0976C24.3297 46.4 24.7074 46.5794 25.1196 46.5794C25.5317 46.5794 25.9094 46.4 26.1861 46.0976C26.4563 45.8025 26.577 45.4 26.6108 45.0085L26.9949 40.5633C26.9965 40.5443 26.9982 40.525 26.9982 40.506C26.9982 39.6252 26.8393 38.7659 26.5235 37.9439C26.1989 37.0986 25.7209 36.329 25.1327 35.6424C25.0393 35.5335 24.9179 35.4264 24.8102 35.3317C24.6283 35.1717 24.4397 35.0179 24.2497 34.8676C23.7554 34.4763 23.2424 34.1023 22.7215 33.7473C22.2839 33.449 21.8344 33.1595 21.373 32.8992C21.0315 32.7066 20.6514 32.5069 20.2793 32.3816C19.94 32.2673 19.5125 32.1951 19.2158 32.4492C19.1677 32.4903 19.1261 32.5367 19.0915 32.5889L19.0915 32.5889Z" fill="white"/>
<path fill-rule="evenodd" clip-rule="evenodd" d="M22.7156 27.1537C22.7156 23.9736 21.3199 21.9243 19.5314 21.0105C18.8172 20.6456 18.0419 20.4639 17.2666 20.4647C16.4872 20.4655 15.7112 20.6477 15 21.0106C13.2017 21.9282 11.795 23.9845 11.795 27.1537C11.795 28.1471 11.9731 28.8137 12.133 29.4125C12.3057 30.0594 12.452 30.6071 12.1937 31.4911C12.1573 31.6155 11.9552 32.0414 11.7231 32.5147C11.8293 32.4484 11.9364 32.3836 12.0443 32.3203C12.974 31.7755 14.3014 31.1617 15.3903 31.4598C15.8931 31.5975 16.2812 31.9919 16.4168 32.4945C16.5135 32.853 16.5636 33.2213 16.6112 33.5889C16.6473 33.8671 16.7257 34.6228 16.9142 34.8358C16.9917 34.9233 17.1827 34.9298 17.2863 34.9298C17.3681 34.9298 17.5661 34.9246 17.6288 34.8519C17.8009 34.6524 17.8651 33.862 17.894 33.6007C17.9355 33.225 17.9827 32.8489 18.0826 32.4836C18.1341 32.2952 18.1188 32.33 18.2173 32.1541L18.2408 32.1122C18.3293 31.9543 18.4446 31.8258 18.5815 31.7086C19.16 31.2132 19.9046 31.2266 20.5903 31.4575C21.0298 31.6055 21.4487 31.8226 21.8518 32.05C22.1707 32.2298 22.4826 32.4217 22.7896 32.6212L22.7012 32.4214C22.5204 32.011 22.3717 31.6629 22.3404 31.5617C22.0515 30.625 22.2006 30.0688 22.3776 29.4086C22.5375 28.812 22.7156 28.1478 22.7156 27.1537L22.7156 27.1537ZM16.0059 24.2462C14.5638 22.3901 15.1626 22.8603 17.0293 23.7684C17.0517 23.7826 17.0732 23.7978 17.0936 23.8141C17.379 24.0128 17.7065 24.1836 18.0514 24.3304C18.763 24.6335 19.545 24.8302 20.2075 24.9597C20.4718 24.9971 20.7057 25.1784 20.7972 25.4483C20.9999 26.0405 21.0072 26.6445 20.9089 27.2319C20.8184 27.7728 20.6385 28.2918 20.4459 28.7682C20.1564 29.484 19.7839 30.1744 19.3061 30.6975C18.7592 31.2964 18.0853 31.683 17.2553 31.683C17.2392 31.683 17.197 31.6813 17.1279 31.6779C16.1105 31.6276 15.181 30.9923 14.5218 30.0053C13.9117 29.0917 13.5229 27.8626 13.5229 26.5346C13.5229 26.4488 13.5263 26.336 13.5333 26.1951C13.5478 25.8868 13.7518 25.6323 14.0274 25.5387C14.0766 25.5163 14.1291 25.4991 14.1843 25.4878C14.4901 25.425 14.8851 25.23 15.2498 24.9428C15.4062 24.8197 15.88 24.3944 16.0059 24.2462H16.0059Z" fill="white"/>
</svg>
