<svg width="60" height="60" viewBox="0 0 60 60" fill="none" xmlns="http://www.w3.org/2000/svg">
<path fill-rule="evenodd" clip-rule="evenodd" d="M44.0468 24.874C44.0468 24.1003 43.9886 22.1986 43.877 20.5479C43.8001 19.4093 43.6933 18.3774 43.5539 17.8759C42.6773 14.7207 40.6927 12.1944 38.0807 10.4225C35.349 8.56933 31.9286 7.54668 28.3829 7.50312C26.3604 7.47827 24.4282 7.79772 22.6416 8.40639C20.7822 9.03986 19.0757 9.98635 17.5839 11.1839C16.549 12.0148 15.571 13.1821 14.7454 14.5631C13.9514 15.8913 13.294 17.4207 12.8604 19.0393C12.0622 22.0183 11.8077 24.6102 12.2306 27.5131C12.6468 30.3701 13.7218 33.4997 15.5868 37.5874C16.2377 39.0141 16.8462 40.7519 17.296 43.0067C17.7488 45.276 18.0356 48.0595 18.0356 51.5607C18.0356 52.0785 18.4554 52.4983 18.9731 52.4983H33.7323C34.2501 52.4983 34.6699 52.0785 34.6699 51.5607C34.6699 50.3732 34.5744 49.3345 34.495 48.4714C34.445 47.9266 34.4021 47.4606 34.4021 47.04C34.4021 46.3425 34.7103 46.0539 36.1467 46.0539C36.8293 46.0539 37.3512 46.0686 37.8668 46.0831C40.728 46.1637 43.4305 46.2397 44.5208 44.3557L44.5225 44.3566C44.8259 43.8312 44.8838 42.4066 44.813 40.7709C44.745 39.1977 44.5762 37.3602 44.4076 36.0192C46.0252 36.017 46.8202 36.013 47.7437 34.9433C47.9285 34.7297 47.9994 34.4562 47.9618 34.197C47.7037 32.1066 44.0469 26.0505 44.0469 24.8741L44.0468 24.874ZM32.8125 25.5198V32.0823V33.0198H31.8749H24.3749H23.4374V32.0823V25.5198H21.5624H19.5006L20.8593 23.9671L27.4218 16.467L28.1249 15.6635L28.828 16.467L35.3906 23.9671L36.7492 25.5198H34.6874H32.8125H32.8125Z" fill="white"/>
</svg>
