<svg width="60" height="60" viewBox="0 0 60 60" fill="none" xmlns="http://www.w3.org/2000/svg">
<path d="M10.7851 37.9448C10.2696 37.9448 9.85156 37.5268 9.85156 37.0112C9.85156 36.4956 10.2696 36.0776 10.7851 36.0776H15.7405C16.2561 36.0776 16.6741 36.4956 16.6741 37.0112C16.6741 37.5268 16.2561 37.9448 15.7405 37.9448H10.7851Z" fill="white"/>
<path d="M12.1854 8.44238H9.38477V20.0068H12.1854V8.44238Z" fill="white"/>
<path d="M52.4999 8.44238H49.6992V42.0541H52.4999V8.44238Z" fill="white"/>
<path d="M40.6688 8.44238H37.8682V24.3891H40.6688V8.44238Z" fill="white"/>
<path fill-rule="evenodd" clip-rule="evenodd" d="M30.4185 21.5884H47.2415V24.3891H30.4185V21.5884Z" fill="white"/>
<path fill-rule="evenodd" clip-rule="evenodd" d="M40.6323 30.0892H52.4999V32.89H40.6323V30.0892Z" fill="white"/>
<path fill-rule="evenodd" clip-rule="evenodd" d="M9.38477 35.6108H17.1409V38.4116H9.38477V35.6108Z" fill="white"/>
<path fill-rule="evenodd" clip-rule="evenodd" d="M52.4999 11.2431H9.38477V8.44238H52.4999V11.2431Z" fill="white"/>
<path fill-rule="evenodd" clip-rule="evenodd" d="M52.4999 51.5577H9.38477V48.757H52.4999V51.5577Z" fill="white"/>
<path fill-rule="evenodd" clip-rule="evenodd" d="M33.2189 17.2064V20.0071H20.7778V17.2064H33.2189Z" fill="white"/>
<path fill-rule="evenodd" clip-rule="evenodd" d="M33.2191 27.8947H30.4185V17.2064H33.2191V27.8947Z" fill="white"/>
<path fill-rule="evenodd" clip-rule="evenodd" d="M23.5599 33.8652H20.7593V17.397H23.5599V33.8652Z" fill="white"/>
<path d="M12.1854 23.3412H9.38477V51.5575H12.1854V23.3412Z" fill="white"/>
<path d="M28.8373 35.611H26.0366V51.5577H28.8373V35.611Z" fill="white"/>
<path d="M52.4999 45.3882H49.6992V51.5576H52.4999V45.3882Z" fill="white"/>
<path fill-rule="evenodd" clip-rule="evenodd" d="M37.2065 45.9985L37.7313 42.9457L40.2593 45.4737L37.2065 45.9985Z" fill="white"/>
<path d="M47.6689 38.0661L45.1392 35.5364L38.0921 42.5835L40.6218 45.1132L47.6689 38.0661Z" fill="white"/>
<path fill-rule="evenodd" clip-rule="evenodd" d="M47.6688 34.4522L48.753 35.5364C49.1505 35.9339 49.1505 36.5844 48.753 36.9819L48.0302 37.7048L45.5005 35.175L46.2233 34.4522C46.6208 34.0547 47.2713 34.0547 47.6688 34.4522L47.6688 34.4522Z" fill="white"/>
<path d="M8.71406 20.03C8.22267 19.8749 7.69855 20.1475 7.54349 20.6389C7.38844 21.1303 7.66111 21.6544 8.1525 21.8095C12.3334 23.1366 14.8379 24.0874 16.2118 25.6683C17.5624 27.2223 17.9545 29.5698 17.9545 33.7345C17.9545 34.0057 17.9473 34.2007 17.9394 34.414C17.8624 36.4917 17.7421 39.735 20.7415 39.8254C24.3592 39.9344 25.3016 36.3252 26.0958 33.2837C26.3905 32.1549 26.6609 31.1197 27.0131 30.5704C27.1457 30.3637 27.3432 30.3076 27.6787 30.5228C28.3566 30.9574 28.9374 31.8054 29.4136 32.7828C30.1397 34.2732 30.5947 36.0134 30.8075 37.1739C30.8357 37.3281 30.8912 37.6908 30.9562 38.116C31.3732 40.843 32.1816 46.1284 34.8775 46.3806C35.3891 46.4269 35.8414 46.0498 35.8877 45.5382C35.934 45.0266 35.5568 44.5744 35.0453 44.528C33.8067 44.4122 33.1436 40.0761 32.8015 37.8388C32.7471 37.4834 32.7008 37.1803 32.6381 36.8384C32.4022 35.5512 31.8972 33.6206 31.0911 31.9659C30.4817 30.7152 29.6894 29.5986 28.6852 28.9547C27.1794 27.9891 26.1956 28.3934 25.4451 29.5639C24.9368 30.3565 24.6294 31.5335 24.2943 32.817C23.6718 35.201 22.9331 38.03 20.7926 37.9655C19.6713 37.9317 19.7493 35.8276 19.7992 34.4797C19.8109 34.1634 19.8217 33.8745 19.8217 33.7345C19.8217 29.0962 19.3262 26.414 17.6195 24.4503C15.936 22.5133 13.213 21.4581 8.71405 20.03L8.71406 20.03Z" fill="white"/>
</svg>
