<svg width="60" height="60" viewBox="0 0 60 60" fill="none" xmlns="http://www.w3.org/2000/svg">
<path d="M42.3075 7.95935C43.5056 7.95935 44.5905 8.44507 45.3757 9.23034C46.1609 10.0156 46.6466 11.1004 46.6466 12.2985C46.6466 13.5107 46.1332 14.8912 45.3144 15.9195C44.5425 16.8889 43.4904 17.5684 42.3075 17.5684C41.1245 17.5684 40.0725 16.8889 39.3005 15.9195C38.4817 14.8912 37.9683 13.5107 37.9683 12.2985C37.9683 11.1004 38.454 10.0155 39.2392 9.23034C40.0245 8.44507 41.1093 7.95935 42.3075 7.95935H42.3075Z" fill="white"/>
<path fill-rule="evenodd" clip-rule="evenodd" d="M37.2549 50.0971C37.2877 50.8539 37.6181 51.5408 38.3368 51.8744C38.5721 51.9835 38.8293 52.0406 39.0887 52.0406C39.3481 52.0406 39.6053 51.9835 39.8406 51.8743C40.5991 51.5224 40.9252 50.7768 40.9252 49.9708V39.8458C40.9252 39.715 40.9209 39.5835 40.9193 39.4526C40.9181 39.3559 40.9169 39.2592 40.9164 39.1625C40.9132 38.5293 40.9066 37.5379 41.5003 37.1454C41.6591 37.0404 41.8407 36.9911 42.0305 36.9911C42.2911 36.9911 42.5367 37.066 42.7368 37.2365C43.1877 37.6203 43.216 38.3248 43.216 38.8724C43.216 39.0395 43.2151 39.2063 43.2117 39.3734C43.2084 39.5364 43.2025 39.7017 43.2024 39.8646V49.9708C43.2024 50.7769 43.5284 51.5224 44.287 51.8744C44.5223 51.9836 44.7795 52.0406 45.0389 52.0406C45.2982 52.0406 45.5555 51.9835 45.7908 51.8743C46.5493 51.5224 46.8753 50.7768 46.8753 49.9708C46.8753 45.1253 46.8782 40.2799 46.9156 35.4345C46.9186 35.0403 46.9219 34.646 46.9254 34.2518H37.2138C37.2164 34.5614 37.219 34.8711 37.2214 35.1807C37.2551 39.5432 37.2558 43.9058 37.2552 48.2684L37.2549 50.097L37.2549 50.0971ZM46.9388 32.8509C46.968 30.0335 47.0116 27.2158 47.0853 24.3997L47.1179 23.1549L47.9118 24.1142C48.1456 24.3966 48.3501 24.7029 48.5218 25.0269C48.9415 25.8188 49.1595 26.7044 49.1595 27.6004V32.2801C49.1595 33.015 49.4512 33.7029 50.1426 34.0283C50.3573 34.1293 50.5922 34.1831 50.8296 34.1831C51.067 34.1831 51.302 34.1293 51.5167 34.0283C52.208 33.7029 52.4998 33.015 52.4998 32.2801V27.6004C52.4998 25.2441 51.6178 22.8935 50.0364 21.1423C48.513 19.4552 46.451 18.51 44.1801 18.3937L44.1647 18.3929C43.5276 18.3603 42.8911 18.3697 42.2537 18.373L42.059 18.374C41.4055 18.3773 40.7694 18.472 40.1489 18.6788C39.6941 18.8304 39.2881 19.0319 38.866 19.2546C38.7552 19.3131 38.6444 19.3716 38.5335 19.4297C38.4022 19.4985 38.2867 19.5696 38.1219 19.5482C37.4153 19.4562 36.6858 18.9462 36.1765 18.4701C35.7134 18.0373 35.1098 17.3311 35.0348 16.678C34.9856 16.2493 35.3227 15.6775 35.5393 15.3224C35.9107 14.7137 36.337 14.1164 36.7906 13.5657C37.187 13.0845 37.3635 12.4937 37.1771 11.8882C37.0959 11.6242 36.9536 11.3794 36.7654 11.1772C36.573 10.9704 36.3351 10.8093 36.0699 10.7113C35.4043 10.4654 34.7354 10.6561 34.1824 11.0612L34.124 11.1062C34.1219 11.1078 34.1199 11.1095 34.1179 11.1112C33.3636 11.7383 32.7439 12.6544 32.3014 13.5251C31.8524 14.4086 31.4513 15.5158 31.371 16.5092C31.2741 17.7069 31.7963 18.7975 32.4925 19.7388C33.6047 21.2424 35.309 22.5764 36.8326 23.6361L37.0258 23.7704L37.0327 24.0056C37.1202 26.9527 37.1693 29.9021 37.2003 32.8509H46.9388L46.9388 32.8509Z" fill="white"/>
<path fill-rule="evenodd" clip-rule="evenodd" d="M10.594 34.5868L11.0415 34.4041C11.2665 34.3122 11.4908 34.2187 11.7151 34.1252C14.0533 33.1505 16.2357 32.2679 18.7412 33.3034L19.2864 33.5287L19.3806 32.9463C19.5738 31.7509 20.1894 30.6334 20.9308 29.6907C21.957 28.3857 23.3728 27.2184 24.8355 26.4355L25.2431 26.2173L24.2937 24.4006L25.7153 24.8436L29.6756 26.0852L27.9878 31.4689L26.8527 29.2971L26.4255 29.562C25.1237 30.3694 22.8062 31.8869 22.7601 33.5987C22.7466 34.1004 22.9106 34.5976 23.153 35.0319C23.4443 35.5536 23.8601 36.0081 24.3266 36.3787L35.3882 45.1662V45.3917C35.3882 46.2955 35.3878 47.1993 35.3877 48.1031L35.3876 48.57H35.3847V49.4317L34.6169 48.7852C30.4792 45.3005 25.9125 42.3656 21.7964 38.8521C20.3104 37.5836 18.5489 36.3248 16.5013 36.398C15.2281 36.4435 13.9475 36.9759 12.7734 37.4345C12.5869 37.5074 12.4004 37.5802 12.2136 37.6521L11.7841 37.8175L12.6247 40.0995L7.5 37.7338L9.86596 32.6086L10.2201 33.5751L10.2213 33.5747L10.594 34.5868L10.594 34.5868Z" fill="white"/>
</svg>
