<svg width="40" height="40" viewBox="0 0 40 40" fill="none" xmlns="http://www.w3.org/2000/svg">
<path d="M12.2819 18.115C12.376 18.0183 12.7316 17.605 13.0628 17.265C15.0047 15.1267 20.0705 11.6267 22.7219 10.5583C23.1245 10.3867 24.1426 10.0233 24.6865 10C25.2077 10 25.7045 10.12 26.1786 10.3633C26.7696 10.7033 27.2437 11.2383 27.5035 11.87C27.6707 12.3083 27.9305 13.62 27.9305 13.6433C28.1903 15.0783 28.3332 17.41 28.3332 19.9867C28.3332 22.4417 28.1903 24.6783 27.9776 26.135C27.9532 26.1583 27.6935 27.7883 27.4093 28.3467C26.8881 29.3667 25.8701 30 24.7806 30H24.6865C23.9769 29.975 22.4848 29.3417 22.4848 29.3183C19.9763 28.2483 15.0274 24.92 13.0385 22.7083C13.0385 22.7083 12.4783 22.14 12.2348 21.785C11.8548 21.275 11.6665 20.6433 11.6665 20.0117C11.6665 19.3067 11.8792 18.65 12.2819 18.115Z" fill="white"/>
</svg>
