<svg width="40" height="40" viewBox="0 0 40 40" fill="none" xmlns="http://www.w3.org/2000/svg">
<path d="M27.7181 18.115C27.624 18.0183 27.2684 17.605 26.9372 17.265C24.9953 15.1267 19.9295 11.6267 17.2781 10.5583C16.8755 10.3867 15.8574 10.0233 15.3135 10C14.7923 10 14.2955 10.12 13.8214 10.3633C13.2304 10.7033 12.7563 11.2383 12.4965 11.87C12.3293 12.3083 12.0695 13.62 12.0695 13.6433C11.8097 15.0783 11.6668 17.41 11.6668 19.9867C11.6668 22.4417 11.8097 24.6783 12.0224 26.135C12.0468 26.1583 12.3065 27.7883 12.5907 28.3467C13.1119 29.3667 14.1299 30 15.2194 30H15.3135C16.0231 29.975 17.5152 29.3417 17.5152 29.3183C20.0237 28.2483 24.9726 24.92 26.9615 22.7083C26.9615 22.7083 27.5217 22.14 27.7652 21.785C28.1452 21.275 28.3335 20.6433 28.3335 20.0117C28.3335 19.3067 28.1208 18.65 27.7181 18.115Z" fill="white"/>
</svg>
