<svg width="60" height="60" viewBox="0 0 60 60" fill="none" xmlns="http://www.w3.org/2000/svg">
<path d="M40.1599 38.1721L43.0281 51.3651C43.1373 51.8707 42.816 52.3691 42.3103 52.4784C42.0549 52.5335 41.8013 52.4788 41.5988 52.3459L29.9996 45.5798L18.3553 52.3722C17.9084 52.631 17.3361 52.4786 17.0772 52.0316C16.9559 51.822 16.925 51.5848 16.9724 51.3654L16.971 51.3651L19.8391 38.1716C20.1567 38.662 20.5543 39.0837 21.1027 39.4049C21.1373 39.4251 21.1723 39.4448 21.2075 39.464C22.2911 40.0514 23.3722 39.9518 24.5455 39.8043L24.667 39.789C24.9909 39.7547 25.5455 39.6899 25.7165 39.7369C25.9496 39.801 26.4864 40.2249 26.6885 40.3778C27.7048 41.1464 28.6625 41.8163 29.9996 41.8163C31.3367 41.8163 32.2945 41.1464 33.3107 40.3778C33.5129 40.225 34.0498 39.801 34.2827 39.7369C34.5163 39.6727 35.2019 39.7726 35.4537 39.8043L36.3845 39.9213L36.3875 39.8974C37.2118 39.9524 38.0026 39.8909 38.7907 39.4645C38.8264 39.4452 38.8617 39.4252 38.8967 39.4048C39.4448 39.0837 39.8424 38.6622 40.1599 38.172V38.1721Z" fill="white"/>
<path fill-rule="evenodd" clip-rule="evenodd" d="M21.5766 9.78318C20.6818 10.3073 20.3139 11.2243 19.947 12.1389C19.7382 12.6594 19.5297 13.179 19.2595 13.4492C18.9893 13.7194 18.4697 13.9279 17.9492 14.1367C17.0347 14.5036 16.1176 14.8715 15.5935 15.7663C15.0722 16.6562 15.1952 17.6347 15.3189 18.6185C15.3909 19.1911 15.4632 19.7663 15.3563 20.155C15.2547 20.5243 14.9088 20.9816 14.5593 21.4439C13.9393 22.2636 13.3105 23.095 13.3105 24.1895C13.3105 25.284 13.9393 26.1154 14.5592 26.9351C14.9088 27.3973 15.2548 27.8547 15.3563 28.224C15.4632 28.6127 15.3909 29.1879 15.3189 29.7606C15.1952 30.7443 15.0722 31.7228 15.5935 32.6127C16.1176 33.5075 17.0346 33.8754 17.9492 34.2423C18.4697 34.4511 18.9893 34.6596 19.2595 34.9298C19.5298 35.2 19.7382 35.7196 19.947 36.2401C20.0139 36.4069 20.0808 36.5736 20.1509 36.7381C20.4656 37.4759 20.8449 38.1673 21.5766 38.5959C21.6025 38.611 21.6285 38.6257 21.6545 38.6398C22.5282 39.1131 23.476 38.9939 24.4288 38.8741L24.4284 38.8705L24.4288 38.8705C25.0014 38.7985 25.5766 38.7261 25.9653 38.833C26.3346 38.9346 26.792 39.2805 27.2542 39.6301C28.0739 40.25 28.9053 40.8788 29.9998 40.8788C31.0944 40.8788 31.9257 40.25 32.7455 39.6301C33.2077 39.2805 33.6651 38.9346 34.0344 38.833C34.4139 38.7287 34.9937 38.8015 35.5709 38.8741L35.5713 38.8705C36.5262 38.9906 37.4761 39.1099 38.3449 38.6399C38.371 38.6258 38.3971 38.6111 38.4231 38.5959C39.1546 38.1674 39.534 37.4763 39.8486 36.7386C39.9188 36.574 39.9857 36.407 40.0527 36.2401C40.2615 35.7196 40.4699 35.2 40.7402 34.9298C41.0104 34.6596 41.5299 34.4511 42.0505 34.2423C42.965 33.8754 43.8821 33.5075 44.4062 32.6127C44.9275 31.7228 44.8045 30.7443 44.6808 29.7606C44.6088 29.188 44.5364 28.6127 44.6434 28.224C44.7449 27.8547 45.0909 27.3974 45.4404 26.9351C46.0604 26.1154 46.6891 25.284 46.6891 24.1895C46.6891 23.095 46.0603 22.2636 45.4404 21.4439C45.0908 20.9816 44.7449 20.5243 44.6434 20.155C44.5364 19.7663 44.6088 19.1911 44.6808 18.6185C44.8045 17.6347 44.9275 16.6561 44.4062 15.7663C43.882 14.8715 42.965 14.5036 42.0505 14.1367C41.5299 13.9279 41.0103 13.7194 40.7401 13.4492C40.4699 13.179 40.2615 12.6594 40.0526 12.1389C39.6857 11.2243 39.3179 10.3073 38.423 9.78312C37.5279 9.25882 36.552 9.38156 35.5709 9.50488L35.5713 9.50851L35.5709 9.50855C34.9983 9.58056 34.423 9.65288 34.0343 9.54599C33.6651 9.44443 33.2077 9.09854 32.7455 8.74895C31.9257 8.12901 31.0944 7.50024 29.9998 7.50024C28.9053 7.50024 28.074 8.12901 27.2542 8.74895C26.7919 9.09854 26.3346 9.44443 25.9653 9.54599C25.5858 9.65035 25.006 9.57748 24.4288 9.50492L24.4284 9.50851C23.4448 9.38484 22.4664 9.26194 21.5766 9.78319L21.5766 9.78318ZM29.9998 13.8466C32.8558 13.8466 35.4416 15.0043 37.3133 16.8761C39.185 18.7477 40.3427 21.3335 40.3427 24.1895C40.3427 27.0455 39.185 29.6313 37.3133 31.5029C35.4416 33.3747 32.8558 34.5324 29.9998 34.5324C27.1438 34.5324 24.558 33.3747 22.6864 31.5029C20.8146 29.6313 19.6569 27.0455 19.6569 24.1895C19.6569 21.3335 20.8146 18.7477 22.6864 16.8761C24.558 15.0043 27.1438 13.8466 29.9998 13.8466Z" fill="white"/>
<path d="M24.3861 22.6207L22.6865 24.3203L28.0416 29.6754L29.7412 27.9758L24.3861 22.6207Z" fill="white"/>
<path d="M37.3134 20.4035L35.6138 18.7039L26.3419 27.9757L28.0415 29.6753L37.3134 20.4035Z" fill="white"/>
</svg>
