<svg width="60" height="60" viewBox="0 0 60 60" fill="none" xmlns="http://www.w3.org/2000/svg">
<path fill-rule="evenodd" clip-rule="evenodd" d="M30.8231 24.6194L32.3805 25.0531L32.8424 23.3905L33.3415 23.6341C33.4096 23.6673 33.4807 23.694 33.5538 23.7143C33.866 23.801 34.1973 23.7598 34.4793 23.6004C34.7625 23.4404 34.9687 23.1781 35.0558 22.8645C35.1426 22.5522 35.1013 22.2209 34.942 21.9389C34.7819 21.6557 34.5197 21.4495 34.206 21.3624C34.1333 21.3422 34.0589 21.3285 33.9837 21.3218L33.4309 21.2727L33.8932 19.6116L32.2072 19.1431L32.4714 18.637C32.5115 18.5602 32.5432 18.4792 32.5664 18.3957C32.6532 18.0834 32.6119 17.7522 32.4525 17.4702C32.2925 17.1869 32.0302 16.9807 31.7166 16.8936C31.4043 16.8069 31.073 16.8481 30.7911 17.0075C30.5078 17.1675 30.3016 17.4298 30.2145 17.7434C30.1915 17.8263 30.1771 17.9114 30.1721 17.9972L30.1383 18.5682L28.4516 18.0995L26.939 23.5402L28.7249 24.0365C28.7294 24.0377 28.7349 24.0393 28.7349 24.0408C28.7389 23.9494 28.7333 24.0047 28.7475 23.9153C28.7616 23.8265 28.7494 23.8823 28.7747 23.7912C28.8537 23.507 29.0408 23.2664 29.2977 23.1212C29.5546 22.976 29.8595 22.9395 30.1437 23.0185C30.4279 23.0974 30.6684 23.2845 30.8136 23.5414C30.9588 23.7983 30.9953 24.1031 30.9164 24.3873C30.8922 24.4745 30.9106 24.4204 30.8751 24.5082C30.849 24.5726 30.8663 24.5398 30.8281 24.6099C30.8265 24.6128 30.8246 24.6162 30.8231 24.6195L30.8231 24.6194Z" fill="white"/>
<path d="M47.6877 17.2166C47.9329 17.2166 48.1317 17.4154 48.1317 17.6606C48.1317 17.9058 47.9329 18.1046 47.6877 18.1046C47.1835 18.1046 46.7002 18.0181 46.2612 17.8725C45.779 17.7125 45.3525 17.4796 45.0116 17.2105C44.7357 16.9929 44.5127 16.7491 44.3574 16.4976C44.1869 16.2217 44.0938 15.9338 44.0938 15.6532C44.0938 15.408 44.2925 15.2092 44.5377 15.2092C45.0423 15.2092 45.4732 15.3062 45.665 15.6166C45.767 15.7819 46.4867 15.6815 46.681 15.8347C46.9448 16.0429 46.9204 16.1666 47.3017 16.2932C47.6489 16.4083 47.2744 17.2166 47.6877 17.2166V17.2166Z" fill="white"/>
<path d="M44.7651 16.6602C44.9289 16.8422 44.9141 17.1225 44.7322 17.2862C44.457 17.5334 44.124 17.7452 43.7519 17.8912C43.4091 18.0256 43.0341 18.1046 42.6416 18.1046C42.3964 18.1046 42.8142 17.9058 42.8142 17.6606C42.8142 17.4154 42.7818 16.7195 43.0269 16.7195C43.3062 16.7195 43.3179 15.9931 43.5603 15.898C43.8289 15.7927 44.7238 16.6143 44.7651 16.6602L44.7651 16.6602Z" fill="white"/>
<path d="M45.4487 15.0137C46.2618 15.0137 46.998 15.3433 47.5309 15.8762C48.0637 16.4091 48.3934 17.1453 48.3934 17.9584C48.3934 18.7835 48.0437 19.7233 47.486 20.4238C46.9621 21.0816 46.2491 21.5428 45.4487 21.5428C44.6482 21.5428 43.9352 21.0816 43.4114 20.4238C42.8536 19.7233 42.5039 18.7835 42.5039 17.9584C42.5039 17.1453 42.8336 16.4091 43.3664 15.8762C43.8994 15.3433 44.6355 15.0137 45.4487 15.0137H45.4487ZM46.9031 16.504C46.5309 16.1318 46.0166 15.9016 45.4487 15.9016C44.8807 15.9016 44.3664 16.1318 43.9942 16.504C43.6221 16.8762 43.3918 17.3904 43.3918 17.9584C43.3918 18.592 43.6667 19.3218 44.105 19.8723C44.4714 20.3323 44.9455 20.6548 45.4487 20.6548C45.9518 20.6548 46.4259 20.3323 46.7923 19.8723C47.2306 19.3218 47.5055 18.592 47.5055 17.9584C47.5055 17.3904 47.2752 16.8762 46.9031 16.504H46.9031Z" fill="white"/>
<path fill-rule="evenodd" clip-rule="evenodd" d="M46.149 22.1217L46.1506 22.1278L45.9958 22.1689C45.8171 22.2164 45.6335 22.2407 45.4486 22.2407C45.263 22.2407 45.0789 22.2159 44.8996 22.168C44.7128 22.1181 44.5312 22.0493 44.3626 21.954C44.2951 21.9158 44.2189 21.898 44.1416 21.9106C43.8771 21.9537 43.6148 22.0198 43.3637 22.1141C43.1335 22.2006 42.9101 22.3127 42.7083 22.4537C41.922 23.0031 41.083 23.2601 40.1303 23.0643C39.3763 22.9093 38.6848 22.5058 38.0254 22.1244C37.5493 21.849 37.0676 21.5843 36.5631 21.3637C36.5543 21.3599 36.5454 21.3557 36.5363 21.3524C36.038 21.1674 35.4845 21.1739 35.0428 21.4949C34.8687 21.6214 34.729 21.789 34.6361 21.9832C34.5429 22.1779 34.5002 22.3925 34.5144 22.6082C34.5499 23.1519 34.9262 23.5708 35.3687 23.8493C36.4126 24.5064 37.4845 25.1957 38.6401 25.6413C39.552 25.9929 40.5629 26.2234 41.5417 26.0714L41.7238 26.0431L41.729 26.2274C41.7813 28.0931 41.8119 30.1718 41.8317 32.0384H48.7428C48.7627 30.1544 48.7926 28.0582 48.8418 26.1751L48.8533 25.7342L49.1306 26.0772C49.2707 26.2506 49.3939 26.4374 49.4983 26.6344C49.7689 27.1451 49.9095 27.7165 49.9095 28.2943V31.4552C49.9095 32.0177 50.1428 32.5393 50.6696 32.7872C50.8368 32.866 51.0198 32.9078 51.2048 32.9078C51.3898 32.9078 51.5728 32.866 51.7401 32.7872C52.2669 32.5393 52.5001 32.0177 52.5001 31.4552V28.2943C52.5001 26.6615 51.889 25.0338 50.7932 23.8203C49.7393 22.6532 48.3056 22.0228 46.7439 21.9094C46.6759 21.9045 46.6065 21.9131 46.5459 21.946C46.4186 22.015 46.286 22.0747 46.149 22.1217V22.1217ZM45.936 23.8558V29.059L45.4486 29.5464L44.9612 29.059V23.9074L44.741 24.024C44.5826 24.1074 44.3865 24.0466 44.3031 23.8881C44.2197 23.7297 44.2806 23.5336 44.4389 23.4502L45.3435 22.9716L45.3453 22.9706L45.3463 22.9701C45.4376 22.9221 45.5503 22.9184 45.6484 22.9701L46.4583 23.3986C46.6167 23.482 46.6775 23.6781 46.5941 23.8365C46.5107 23.9949 46.3146 24.0557 46.1562 23.9723L45.936 23.8558ZM41.8411 32.7414C41.8429 32.946 41.8446 33.2105 41.8461 33.4151C41.869 36.3614 41.8694 39.3078 41.869 42.2542L41.8688 43.4856C41.886 43.8574 42.0206 44.2216 42.2646 44.505C42.5214 44.8032 42.8777 44.9863 43.2746 44.9863C43.6715 44.9863 44.0277 44.8032 44.2845 44.505C44.5464 44.2009 44.6823 43.8038 44.6823 43.4041V35.0127L44.7569 34.9648C44.9159 34.8627 45.1002 34.8019 45.2899 34.8019H45.2918C45.4786 34.8019 45.6589 34.8548 45.8141 34.9592L45.8859 35.0075V43.4041C45.8859 43.8038 46.0217 44.2009 46.2836 44.505C46.5404 44.8032 46.8966 44.9863 47.2935 44.9863C47.6904 44.9863 48.0467 44.8032 48.3035 44.505C48.5654 44.2009 48.7012 43.8038 48.7012 43.4041C48.7012 40.4135 48.7009 37.4226 48.7208 34.4321C48.7245 33.8885 48.7286 33.285 48.7334 32.7414H41.8411V32.7414Z" fill="white"/>
<path d="M12.3126 17.2166C12.0674 17.2166 11.8687 17.4154 11.8687 17.6606C11.8687 17.9058 12.0674 18.1046 12.3126 18.1046C12.8169 18.1046 13.3001 18.0181 13.7391 17.8725C14.2213 17.7125 14.6478 17.4796 14.9888 17.2105C15.2646 16.9929 15.4876 16.7491 15.6429 16.4976C15.8134 16.2217 15.9066 15.9338 15.9066 15.6532C15.9066 15.408 15.7078 15.2092 15.4626 15.2092C14.958 15.2092 14.5272 15.3062 14.3354 15.6166C14.2333 15.7819 13.5136 15.6815 13.3193 15.8347C13.0555 16.0429 13.08 16.1666 12.6986 16.2932C12.3514 16.4083 12.7259 17.2166 12.3126 17.2166L12.3126 17.2166Z" fill="white"/>
<path d="M15.2354 16.6602C15.0716 16.8422 15.0864 17.1225 15.2683 17.2862C15.5435 17.5334 15.8766 17.7452 16.2486 17.8912C16.5914 18.0256 16.9664 18.1046 17.3589 18.1046C17.6041 18.1046 17.1863 17.9058 17.1863 17.6606C17.1863 17.4154 17.2188 16.7195 16.9736 16.7195C16.6943 16.7195 16.6826 15.9931 16.4402 15.898C16.1716 15.7927 15.2767 16.6143 15.2354 16.6602L15.2354 16.6602Z" fill="white"/>
<path d="M14.5516 15.0137C13.7386 15.0137 13.0023 15.3433 12.4694 15.8762C11.9366 16.4091 11.6069 17.1453 11.6069 17.9584C11.6069 18.7835 11.9566 19.7233 12.5144 20.4238C13.0382 21.0816 13.7512 21.5428 14.5517 21.5428C15.3521 21.5428 16.0651 21.0816 16.5889 20.4238C17.1467 19.7233 17.4964 18.7835 17.4964 17.9584C17.4964 17.1453 17.1667 16.4091 16.6339 15.8762C16.1009 15.3433 15.3648 15.0137 14.5517 15.0137H14.5516ZM13.0972 16.504C13.4694 16.1318 13.9837 15.9016 14.5516 15.9016C15.1197 15.9016 15.6339 16.1318 16.0061 16.504C16.3782 16.8762 16.6085 17.3904 16.6085 17.9584C16.6085 18.592 16.3336 19.3218 15.8953 19.8723C15.5289 20.3323 15.0548 20.6548 14.5516 20.6548C14.0485 20.6548 13.5744 20.3323 13.208 19.8723C12.7697 19.3218 12.4948 18.592 12.4948 17.9584C12.4948 17.3904 12.7251 16.8762 13.0972 16.504H13.0972Z" fill="white"/>
<path fill-rule="evenodd" clip-rule="evenodd" d="M13.8512 22.1217L13.8496 22.1278L14.0043 22.1689C14.1831 22.2164 14.3666 22.2407 14.5516 22.2407C14.7372 22.2407 14.9213 22.2159 15.1005 22.168C15.2873 22.1181 15.469 22.0493 15.6375 21.954C15.7051 21.9158 15.7813 21.898 15.8585 21.9106C16.1231 21.9537 16.3853 22.0198 16.6365 22.1141C16.8667 22.2006 17.0901 22.3127 17.2918 22.4537C18.0782 23.0031 18.9171 23.2601 19.8698 23.0643C20.6238 22.9093 21.3154 22.5058 21.9747 22.1244C22.4508 21.849 22.9326 21.5843 23.437 21.3637C23.4458 21.3599 23.4548 21.3557 23.4638 21.3524C23.9621 21.1674 24.5157 21.1739 24.9574 21.4949C25.1315 21.6214 25.2712 21.789 25.364 21.9832C25.4573 22.1779 25.4999 22.3925 25.4858 22.6082C25.4502 23.1519 25.0739 23.5708 24.6314 23.8493C23.5875 24.5064 22.5157 25.1957 21.3601 25.6413C20.4482 25.9929 19.4373 26.2234 18.4585 26.0714L18.2763 26.0431L18.2711 26.2274C18.2188 28.0931 18.1882 30.1718 18.1684 32.0384H11.2573C11.2375 30.1544 11.2075 28.0582 11.1583 26.1751L11.1468 25.7342L10.8696 26.0772C10.7294 26.2506 10.6062 26.4374 10.5018 26.6344C10.2312 27.1451 10.0907 27.7165 10.0907 28.2943V31.4552C10.0907 32.0177 9.85737 32.5393 9.33058 32.7872C9.16331 32.866 8.9803 32.9078 8.79535 32.9078C8.61036 32.9078 8.42735 32.866 8.26008 32.7872C7.73329 32.5393 7.5 32.0177 7.5 31.4552V28.2943C7.5 26.6615 8.11119 25.0338 9.20699 23.8203C10.2608 22.6532 11.6945 22.0228 13.2562 21.9094C13.3243 21.9045 13.3936 21.9131 13.4543 21.946C13.5816 22.015 13.7142 22.0747 13.8511 22.1217L13.8512 22.1217ZM14.0642 23.8558V29.059L14.5516 29.5464L15.039 29.059V23.9074L15.2591 24.024C15.4175 24.1074 15.6136 24.0466 15.697 23.8881C15.7804 23.7297 15.7196 23.5336 15.5612 23.4502L14.6566 22.9716L14.6548 22.9706L14.6538 22.9701C14.5625 22.9221 14.4499 22.9184 14.3517 22.9701L13.5419 23.3986C13.3835 23.482 13.3227 23.6781 13.4061 23.8365C13.4894 23.9949 13.6855 24.0557 13.844 23.9723L14.0642 23.8558H14.0642ZM18.1591 32.7414C18.1573 32.946 18.1556 33.2105 18.154 33.4151C18.1312 36.3614 18.1307 39.3078 18.1311 42.2542L18.1313 43.4856C18.1142 43.8574 17.9796 44.2216 17.7355 44.505C17.4787 44.8032 17.1225 44.9863 16.7256 44.9863C16.3287 44.9863 15.9724 44.8032 15.7156 44.505C15.4537 44.2009 15.3179 43.8038 15.3179 43.4041V35.0127L15.2433 34.9648C15.0843 34.8627 14.8999 34.8019 14.7102 34.8019H14.7083C14.5215 34.8019 14.3413 34.8548 14.1861 34.9592L14.1142 35.0075V43.4041C14.1142 43.8038 13.9785 44.2009 13.7165 44.505C13.4598 44.8032 13.1035 44.9863 12.7066 44.9863C12.3097 44.9863 11.9534 44.8032 11.6967 44.505C11.4347 44.2009 11.299 43.8038 11.299 43.4041C11.299 40.4135 11.2992 37.4226 11.2793 34.4321C11.2757 33.8885 11.2716 33.285 11.2667 32.7414H18.1591V32.7414Z" fill="white"/>
<path fill-rule="evenodd" clip-rule="evenodd" d="M28.8492 33.2398V27.6671H27.4348V27.6653L27.0014 27.6655C26.9948 27.6655 26.9895 27.6636 26.9843 27.6594C26.9725 27.6498 26.9708 27.6326 26.9805 27.6208C27.0661 27.5155 27.1328 27.3959 27.1782 27.2681C27.2237 27.1396 27.246 27.0043 27.246 26.8681C27.246 26.5511 27.1209 26.2488 26.8967 26.0246C26.6726 25.8005 26.3702 25.6753 26.0532 25.6753C25.7361 25.6753 25.4338 25.8005 25.2097 26.0246C24.9855 26.2488 24.8604 26.5511 24.8604 26.8681C24.8604 27.0043 24.8827 27.1396 24.9282 27.268C24.9712 27.3892 25.0291 27.5032 25.1117 27.6024C25.1175 27.6093 25.1322 27.6289 25.1336 27.6383C25.1336 27.6544 25.1208 27.6671 25.1047 27.6671H23.2572V29.1192H23.2551L23.2553 29.5524C23.2553 29.5594 23.2531 29.565 23.2485 29.5702C23.2384 29.5815 23.2214 29.5824 23.2102 29.5723C23.1018 29.4754 22.9757 29.3998 22.8399 29.348C22.7039 29.2961 22.5596 29.2702 22.414 29.2702C22.097 29.2702 21.7947 29.3954 21.5705 29.6195C21.3464 29.8437 21.2212 30.146 21.2212 30.4631C21.2212 30.7801 21.3464 31.0824 21.5705 31.3066C21.7947 31.5307 22.097 31.6559 22.414 31.6559C22.5596 31.6559 22.7039 31.63 22.8399 31.5781C22.9681 31.5292 23.0881 31.4643 23.1897 31.3711C23.1973 31.3641 23.218 31.3469 23.2287 31.3449C23.2447 31.3449 23.2572 31.3578 23.2572 31.3739V33.2398H24.4783V33.2377L24.7657 33.2378C24.75 33.2044 24.7355 33.1704 24.7223 33.1358C24.6604 32.9736 24.6294 32.8012 24.6294 32.6276C24.6294 32.2494 24.7789 31.8882 25.0464 31.6208C25.3138 31.3533 25.675 31.2038 26.0532 31.2038C26.4314 31.2038 26.7926 31.3533 27.06 31.6208C27.3275 31.8882 27.477 32.2494 27.477 32.6276C27.477 32.8012 27.446 32.9736 27.3841 33.1359C27.3706 33.1712 27.356 33.2058 27.3403 33.2398H28.8492L28.8492 33.2398Z" fill="white"/>
<path fill-rule="evenodd" clip-rule="evenodd" d="M28.6505 33.4708H26.9642C26.9481 33.4708 26.9352 33.4584 26.9352 33.4423C26.9372 33.4317 26.9545 33.4109 26.9614 33.4033C27.0547 33.3017 27.1195 33.1817 27.1685 33.0535C27.2204 32.9175 27.2462 32.7731 27.2462 32.6276C27.2462 32.3106 27.1211 32.0083 26.8969 31.7841C26.6728 31.56 26.3704 31.4348 26.0534 31.4348C25.7364 31.4348 25.434 31.56 25.2099 31.7841C24.9858 32.0083 24.8606 32.3106 24.8606 32.6276C24.8606 32.7731 24.8864 32.9175 24.9384 33.0535C24.9902 33.1893 25.0657 33.3154 25.1627 33.4238C25.1727 33.4351 25.1718 33.452 25.1606 33.462C25.1554 33.4667 25.1497 33.4689 25.1427 33.4689L24.7095 33.4687V33.4708H23.2574V33.5249V35.3183C23.2574 35.3344 23.2448 35.3472 23.2287 35.3472C23.2192 35.3458 23.1996 35.3311 23.1927 35.3253C23.0935 35.2427 22.9795 35.1848 22.8583 35.1419C22.7299 35.0963 22.5946 35.074 22.4584 35.074C22.1415 35.074 21.8391 35.1991 21.615 35.4233C21.3908 35.6474 21.2656 35.9498 21.2656 36.2668C21.2656 36.5838 21.3908 36.8862 21.6149 37.1103C21.8391 37.3344 22.1415 37.4597 22.4584 37.4597C22.5946 37.4597 22.7299 37.4373 22.8583 37.3918C22.9862 37.3464 23.1059 37.2797 23.2112 37.1941C23.223 37.1845 23.2401 37.1861 23.2497 37.1979C23.2539 37.2031 23.2559 37.2084 23.2559 37.215L23.2556 37.6484H23.2574V39.0628H28.6504V37.8794H28.6485L28.6487 37.5745C28.6194 37.5871 28.5897 37.5988 28.5596 37.6094C28.4065 37.6638 28.2449 37.6906 28.0825 37.6906C27.7043 37.6906 27.3431 37.5411 27.0756 37.2737C26.8082 37.0062 26.6587 36.645 26.6587 36.2668C26.6587 35.8885 26.8082 35.5274 27.0757 35.26C27.3431 34.9925 27.7043 34.843 28.0825 34.843C28.2449 34.843 28.4064 34.8698 28.5595 34.9241C28.5903 34.935 28.6206 34.9467 28.6504 34.9594V33.4708L28.6505 33.4708Z" fill="white"/>
<path fill-rule="evenodd" clip-rule="evenodd" d="M34.4735 39.0628V33.4708H32.5882C32.5721 33.4708 32.5593 33.4584 32.5593 33.4423C32.5613 33.4316 32.5785 33.4109 32.5855 33.4033C32.6787 33.3017 32.7436 33.1817 32.7925 33.0535C32.8444 32.9175 32.8702 32.7731 32.8702 32.6276C32.8702 32.3106 32.7451 32.0083 32.5209 31.7841C32.2968 31.56 31.9944 31.4348 31.6774 31.4348C31.3604 31.4348 31.0581 31.56 30.8339 31.7841C30.6098 32.0083 30.4846 32.3106 30.4846 32.6276C30.4846 32.7731 30.5105 32.9175 30.5624 33.0535C30.6142 33.1893 30.6897 33.3154 30.7867 33.4238C30.7967 33.4351 30.7958 33.452 30.7846 33.462C30.7794 33.4667 30.7738 33.4689 30.7668 33.4689L30.3335 33.4687V33.4708H28.8814V35.3183C28.8814 35.3344 28.8688 35.3472 28.8527 35.3472C28.8432 35.3458 28.8237 35.3311 28.8167 35.3253C28.7175 35.2427 28.6034 35.1847 28.4823 35.1418C28.354 35.0963 28.2186 35.074 28.0825 35.074C27.7655 35.074 27.4631 35.1991 27.239 35.4233C27.0148 35.6474 26.8896 35.9498 26.8896 36.2668C26.8896 36.5838 27.0148 36.8862 27.239 37.1103C27.4631 37.3344 27.7655 37.4597 28.0825 37.4597C28.2186 37.4597 28.354 37.4373 28.4824 37.3918C28.6102 37.3464 28.7299 37.2797 28.8352 37.1941C28.847 37.1845 28.8641 37.1861 28.8738 37.198C28.8779 37.2031 28.8799 37.2084 28.8799 37.2151L28.8796 37.6484H28.8814V39.0628H34.4735L34.4735 39.0628Z" fill="white"/>
</svg>
