<svg width="60" height="60" viewBox="0 0 60 60" fill="none" xmlns="http://www.w3.org/2000/svg">
<path d="M20.9639 32.0498H49.3459C49.7719 32.0498 50.1584 32.2234 50.4381 32.5031C50.7178 32.7827 50.8914 33.1693 50.8914 33.5953V50.1309C50.8914 50.5569 50.7178 50.9435 50.4381 51.2231C50.1584 51.5028 49.7719 51.6764 49.3459 51.6764H20.9639C20.5421 51.6764 20.1569 51.5029 19.8754 51.2231L19.8754 51.2231L19.8736 51.2213L19.8717 51.2195L19.8694 51.217C19.591 50.9357 19.4185 50.5515 19.4185 50.1309V33.5953C19.4185 33.1727 19.5927 32.7866 19.8736 32.5049L19.8717 32.5031C20.1513 32.2234 20.5379 32.0498 20.9639 32.0498L20.9639 32.0498Z" fill="white"/>
<path d="M41.6691 32.7311C41.6691 33.2485 41.2271 33.668 40.6819 33.668C40.1367 33.668 39.6947 33.2485 39.6947 32.7311V29.9982H37.9537L39.6003 28.7043C39.8461 28.5166 40.0564 28.3288 40.241 28.1421C40.5797 28.19 40.8883 28.3312 41.1294 28.5342C41.4624 28.8147 41.6691 29.2081 41.6691 29.6468V32.7311L41.6691 32.7311ZM36.2126 29.9982H35.8276L37.0241 28.8244L36.3503 29.8405C36.2926 29.8858 36.2466 29.9395 36.2126 29.9982V29.9982ZM34.2773 29.9982H33.955L35.7943 28.1243H35.8013L34.4331 29.8056C34.3643 29.8597 34.3122 29.9259 34.2773 29.9982L34.2773 29.9982ZM32.5941 29.9982H31.9851L33.7913 28.1243H33.9734L32.8025 29.5838C32.667 29.6903 32.596 29.8433 32.5941 29.9982L32.5941 29.9982ZM31.2146 29.9982H30.6155V32.7311C30.6155 33.2485 30.1735 33.668 29.6283 33.668C29.0831 33.668 28.6411 33.2485 28.6411 32.7311V29.6468C28.6411 29.2081 28.8479 28.8147 29.1809 28.5342C29.4811 28.2813 29.8863 28.1243 30.3237 28.1243H32.2602C31.6736 28.7241 31.235 29.1743 31.235 29.1743C30.9903 29.3665 30.9562 29.7107 31.1589 29.9426C31.1763 29.9626 31.1949 29.9812 31.2146 29.9982V29.9982Z" fill="white"/>
<path d="M24.3545 31.3965C24.3545 30.8837 24.7702 30.468 25.283 30.468C25.7957 30.468 26.2114 30.8837 26.2114 31.3965V32.5854C26.2114 33.0982 25.7957 33.5139 25.283 33.5139C24.7702 33.5139 24.3545 33.0982 24.3545 32.5854V31.3965Z" fill="white"/>
<path d="M44.0986 31.3965C44.0986 30.8837 44.5143 30.468 45.0271 30.468C45.5398 30.468 45.9555 30.8837 45.9555 31.3965V32.5854C45.9555 33.0982 45.5398 33.5139 45.0271 33.5139C44.5143 33.5139 44.0986 33.0982 44.0986 32.5854V31.3965Z" fill="white"/>
<path d="M35.9164 31.0373C35.8592 30.968 35.8125 30.8936 35.7762 30.8157L35.5288 31.0714C35.5141 31.0897 35.4979 31.1071 35.4801 31.1234L35.4799 31.1236L35.4751 31.128L35.4748 31.1282L35.4747 31.1282C35.4706 31.1319 35.4664 31.1355 35.4621 31.1391C35.2418 31.3211 34.9676 31.3969 34.7025 31.3719V31.3717C34.4467 31.3472 34.2007 31.2298 34.0203 31.0249C34.0059 31.0097 33.9926 30.9935 33.9803 30.9765C33.9473 30.9344 33.9182 30.8903 33.8928 30.8448L33.8904 30.8473C33.8729 30.8679 33.8534 30.8873 33.8318 30.9052C33.6149 31.0845 33.3464 31.1607 33.0859 31.1393L33.0717 31.1382C32.8066 31.1133 32.5515 30.9877 32.3691 30.7674C32.3037 30.6884 32.2521 30.6026 32.2139 30.5127C32.0029 30.6666 31.7498 30.7298 31.5044 30.7066C31.2394 30.6817 30.9843 30.5562 30.802 30.3359L30.8021 30.3359L30.8013 30.3351C30.6194 30.1152 30.5437 29.8419 30.5686 29.5778C30.5931 29.3177 30.7136 29.0674 30.9243 28.886C31.1877 28.6011 33.2361 26.3872 34.3028 25.2631C33.9656 25.2747 33.6377 25.2858 33.5344 25.2893C33.2103 25.3255 32.8996 25.2376 32.6573 25.0656C32.4088 24.8892 32.2322 24.6245 32.1819 24.3115C32.1795 24.2992 32.1774 24.2867 32.1759 24.274C32.1367 23.9511 32.2405 23.6434 32.4409 23.406C32.6219 23.1915 32.8844 23.0364 33.1902 22.9857C33.2066 22.9818 33.2233 22.9788 33.2404 22.9767L33.2459 22.9761L33.246 22.9772L33.2567 22.9761C33.2649 22.9752 36.1033 22.6845 37.1232 22.5728L37.1357 22.5713L37.3254 22.5499C38.3176 22.439 39.0113 22.3613 39.8765 21.6449C39.9068 21.6197 40.7876 20.7724 42.0528 19.5552C45.264 16.4658 50.9296 11.0153 51.6899 10.3647C51.772 10.2885 51.8818 10.2417 52.0026 10.2412C52.258 10.2402 52.4659 10.4464 52.4669 10.7018L52.4995 16.5147C52.507 16.6537 52.4522 16.7945 52.3382 16.8919C52.1664 17.0386 49.803 19.2186 47.4454 21.3931C45.0992 23.5571 42.7587 25.716 42.5645 25.8819L42.5642 25.8815C42.1725 26.2334 41.8968 26.654 41.6046 27.0999C41.1952 27.7248 40.7561 28.3946 39.9098 29.0803C39.9052 29.0844 39.9006 29.0884 39.8958 29.0924L37.3795 31.1758C37.1589 31.3581 36.8847 31.4336 36.6196 31.4086C36.3547 31.3836 36.0998 31.2582 35.9176 31.0386L35.9164 31.0372L35.9164 31.0373Z" fill="white"/>
<path fill-rule="evenodd" clip-rule="evenodd" d="M26.1318 22.933C26.1236 22.928 26.1152 22.9232 26.1069 22.9182L23.1135 21.0892C23.1004 21.0812 23.0834 21.0856 23.0754 21.0987C23.0657 21.1146 23.0919 21.1417 23.1026 21.1497L26.6528 23.8137C27.2536 24.2206 26.9218 24.9243 26.4038 25.0239C26.2301 25.0573 26.0487 25.0197 25.9019 24.9208L25.5457 24.7031L25.5464 24.7018L22.091 22.5771C22.0773 22.5687 22.0597 22.5727 22.0499 22.5892C22.0481 22.6068 22.0763 22.6366 22.0886 22.6462L25.1935 25.0662C25.2142 25.0823 25.235 25.0982 25.2562 25.1135C25.3912 25.2107 25.4757 25.3574 25.5067 25.519C25.5378 25.681 25.5138 25.8493 25.4243 25.9896C25.411 26.0104 25.3971 26.0308 25.3827 26.0509C25.2857 26.1859 25.1392 26.2708 24.9774 26.3019C24.8055 26.335 24.626 26.2986 24.4802 26.2019C24.4731 26.1973 24.466 26.1928 24.459 26.1881L20.75 23.66C20.7371 23.6512 20.7197 23.6542 20.7108 23.6672C20.7012 23.6813 20.7114 23.7003 20.7224 23.7104L23.023 25.8434C23.032 25.8504 23.0423 25.8571 23.0515 25.8636C23.1902 25.9613 23.2795 26.1106 23.3113 26.2759C23.3443 26.4472 23.3081 26.6262 23.2119 26.7716C23.2052 26.7825 23.1983 26.7931 23.1908 26.8036C23.0934 26.9405 22.9453 27.0277 22.7817 27.0592C22.6104 27.0922 22.4314 27.0562 22.2859 26.9603C22.2732 26.9526 22.2607 26.9451 22.2483 26.9367L17.6257 23.8065C16.7297 23.2092 16.1309 22.5522 15.4657 21.7236C15.0286 21.1791 14.6172 20.6736 14.0472 20.2556C14.0422 20.2522 14.0369 20.2489 14.0318 20.2455C13.6274 19.9804 13.2275 19.6924 12.8309 19.4151C12.1408 18.9327 11.4519 18.4486 10.7629 17.9646C10.0292 17.4494 9.29588 16.9338 8.56119 16.4201L7.5 15.678L7.59447 8.32397L8.29555 8.90485C9.49277 9.8968 10.663 10.9417 11.8261 11.9736C12.7642 12.8058 13.6988 13.6418 14.6333 14.4781C14.9778 14.7865 15.3222 15.0953 15.668 15.4024C15.813 15.5312 15.9764 15.6883 16.1299 15.8056C17.3655 16.6411 18.2 16.674 19.6289 16.6966L19.8551 16.7002C20.5833 16.7002 21.3117 16.706 22.0399 16.7113C22.6015 16.7154 23.1632 16.72 23.7248 16.7253C24.0127 16.7281 24.3064 16.7258 24.5939 16.7359L24.5987 16.7361C24.8281 16.7442 25.0491 16.8326 25.214 16.9935C25.3703 17.1462 25.4623 17.3559 25.4556 17.5754C25.4486 17.8007 25.3404 18.0062 25.1711 18.1528C24.9935 18.3065 24.7619 18.3848 24.525 18.3803L24.4398 18.3851C24.076 18.4089 22.7228 18.4975 22.5088 18.5023C22.4578 18.5035 22.3823 18.5127 22.3355 18.5335C22.3099 18.5449 22.2878 18.5584 22.2748 18.584C22.2569 18.619 22.2618 18.6352 22.281 18.6708C22.3089 18.7225 22.3892 18.7829 22.4361 18.8147C23.4273 19.4861 26.7487 21.7352 26.876 21.821L26.8828 21.8257C27.1859 22.0335 27.3269 22.3398 27.0629 22.743C26.8231 23.1091 26.6109 23.2516 26.1318 22.933V22.933Z" fill="white"/>
</svg>
