<svg width="60" height="60" viewBox="0 0 60 60" fill="none" xmlns="http://www.w3.org/2000/svg">
<path fill-rule="evenodd" clip-rule="evenodd" d="M29.4615 28.209C29.3461 28.1614 29.2269 28.1202 29.1044 28.0859L29.0069 27.3602C28.9944 27.1459 28.8166 26.9758 28.5991 26.9758H27.8343V26.9766C27.6289 26.9763 27.452 27.1308 27.429 27.3396L27.3448 28.0896C27.2253 28.1235 27.1092 28.1639 26.9968 28.2105C26.8832 28.2576 26.7724 28.3114 26.6649 28.3714L26.0939 27.9156C25.9336 27.7705 25.6859 27.7753 25.5313 27.9298L24.9903 28.4707L24.991 28.4713C24.8485 28.6134 24.8299 28.8425 24.9553 29.0068L25.4178 29.6129C25.3556 29.7232 25.2998 29.8372 25.2511 29.9542C25.204 30.0675 25.163 30.1848 25.1287 30.3055L24.4025 30.387C24.1867 30.398 24.0151 30.5764 24.0151 30.7949V31.5599H24.0163C24.0161 31.7609 24.1647 31.936 24.3693 31.9635L25.1252 32.0651C25.1595 32.1876 25.2007 32.3068 25.2483 32.4222C25.2961 32.538 25.3505 32.6505 25.4109 32.759L24.9391 33.3506C24.812 33.5102 24.8218 33.7432 24.9692 33.8913L25.5008 34.4231C25.642 34.5747 25.878 34.5972 26.046 34.4689L26.6523 34.0064C26.7626 34.0686 26.8766 34.1243 26.9937 34.173C27.107 34.2201 27.2242 34.2611 27.3448 34.2953L27.4264 35.0217C27.4373 35.2375 27.6158 35.4091 27.8343 35.4091H28.5991V35.4079C28.8002 35.4082 28.9753 35.2595 29.0028 35.0549L29.1044 34.299C29.2209 34.2665 29.3343 34.2276 29.4442 34.183L29.4665 34.1745C29.5848 34.1255 29.6999 34.0692 29.8113 34.0064L30.3962 34.4527C30.5566 34.593 30.8006 34.5867 30.9536 34.4338L31.4943 33.8929L31.4938 33.8924C31.6387 33.7479 31.655 33.5145 31.5246 33.3505L31.0526 32.7591C31.113 32.6505 31.1674 32.5381 31.2152 32.4221C31.2629 32.3068 31.3041 32.1875 31.3383 32.0651L32.064 31.9676C32.2784 31.9551 32.4484 31.7773 32.4484 31.5599V30.7949H32.4477C32.4479 30.5896 32.2934 30.4127 32.0846 30.3897L31.3347 30.3055C31.3004 30.1848 31.2595 30.0675 31.2123 29.9542C31.1636 29.8371 31.1079 29.7232 31.0457 29.6129L31.492 29.028C31.6323 28.8676 31.626 28.6235 31.4731 28.4707L30.9322 27.9298L30.9317 27.9303C30.7872 27.7855 30.5537 27.7692 30.3898 27.8995L29.7983 28.3716C29.6898 28.3113 29.5773 28.2569 29.4615 28.209V28.209ZM28.2317 29.7899C28.619 29.7899 28.9696 29.947 29.2234 30.2007C29.4772 30.4545 29.6343 30.8052 29.6343 31.1924C29.6343 31.5797 29.4772 31.9304 29.2234 32.1842C28.9697 32.438 28.619 32.595 28.2317 32.595C27.8445 32.595 27.4938 32.438 27.24 32.1842C26.9863 31.9304 26.8292 31.5797 26.8292 31.1924C26.8292 30.8053 26.9863 30.4545 27.24 30.2007C27.4938 29.947 27.8445 29.7899 28.2317 29.7899Z" fill="white"/>
<path fill-rule="evenodd" clip-rule="evenodd" d="M36.5163 34.4022C36.4306 34.3366 36.3402 34.2755 36.2456 34.2194L36.3265 33.5912C36.3641 33.4093 36.2536 33.2275 36.0719 33.1788L35.4329 33.0076L35.4327 33.0082C35.2612 32.962 35.0788 33.0515 35.0128 33.2208L34.7746 33.8285C34.6671 33.8301 34.561 33.8379 34.4567 33.8517C34.3513 33.8656 34.2467 33.8857 34.1434 33.9118L33.7684 33.4031C33.667 33.246 33.4589 33.1945 33.2951 33.2891L32.7221 33.6199L32.7225 33.6205C32.5717 33.7073 32.5047 33.8946 32.5727 34.0599L32.8235 34.6699C32.7468 34.7481 32.6747 34.8308 32.6078 34.9177C32.543 35.0019 32.4826 35.0907 32.4269 35.1839L31.8019 35.0894C31.6192 35.0502 31.4358 35.1609 31.3869 35.3434L31.2157 35.9826L31.2166 35.9828C31.1715 36.1507 31.2564 36.3303 31.4213 36.3991L32.03 36.6532C32.0312 36.7632 32.039 36.8721 32.0529 36.9791C32.067 37.0866 32.0872 37.1927 32.1134 37.2969L31.5868 37.6857C31.4449 37.7905 31.4009 37.9874 31.4908 38.1441L31.816 38.7074C31.9 38.8657 32.0921 38.9374 32.2612 38.8678L32.8714 38.617C32.9496 38.6937 33.0324 38.7658 33.1192 38.8327C33.2034 38.8974 33.2921 38.9579 33.3852 39.0135L33.2908 39.6387C33.2516 39.8214 33.3623 40.0048 33.5449 40.0537L34.1839 40.2249L34.1842 40.2239C34.3521 40.2691 34.5317 40.1841 34.6005 40.0193L34.8546 39.4105C34.9592 39.4094 35.0626 39.4024 35.1645 39.3897L35.185 39.3875C35.2948 39.3731 35.4035 39.3518 35.5107 39.3243L35.8995 39.8281C36.0021 39.9813 36.2074 40.0306 36.3694 39.9372L36.9423 39.6063L36.942 39.6057C37.0954 39.5174 37.1613 39.326 37.0891 39.1598L36.8271 38.56C36.9019 38.4828 36.9725 38.4011 37.0384 38.3149C37.1041 38.2292 37.1652 38.1389 37.2212 38.0442L37.8493 38.1251C38.0312 38.1627 38.2131 38.0523 38.2618 37.8705L38.433 37.2314L38.4324 37.2313C38.4786 37.0598 38.3891 36.8774 38.2198 36.8114L37.6121 36.5733C37.6105 36.4647 37.6025 36.3575 37.5885 36.2522C37.574 36.1436 37.553 36.0359 37.5257 35.9298L38.0295 35.5411C38.1826 35.4385 38.232 35.2331 38.1385 35.0712L37.8077 34.4982L37.8071 34.4985C37.7188 34.3451 37.5274 34.2792 37.3612 34.3514L36.7614 34.6135C36.6842 34.5387 36.6024 34.4681 36.5163 34.4022H36.5163ZM35.135 35.4477C35.4585 35.5345 35.7164 35.7442 35.8715 36.013C36.0268 36.2819 36.0795 36.6101 35.9928 36.9336C35.9061 37.2571 35.6964 37.515 35.4275 37.6702C35.1587 37.8254 34.8305 37.8782 34.507 37.7914C34.1834 37.7048 33.9256 37.495 33.7704 37.2261C33.6151 36.9573 33.5624 36.6291 33.6491 36.3056C33.7358 35.9821 33.9455 35.7243 34.2144 35.569C34.4833 35.4138 34.8115 35.3611 35.135 35.4477Z" fill="white"/>
<path fill-rule="evenodd" clip-rule="evenodd" d="M27.5836 37.112C27.4481 37.056 27.308 37.0076 27.1641 36.9673L27.0495 36.1147C27.0348 35.8628 26.826 35.6631 26.5705 35.6631H25.6718V35.6639C25.4305 35.6636 25.2227 35.8452 25.1956 36.0905L25.0967 36.9716C24.9563 37.0115 24.8199 37.059 24.6878 37.1138C24.5544 37.1691 24.4242 37.2322 24.2979 37.3028L23.627 36.7672C23.4387 36.5968 23.1476 36.6023 22.966 36.7839L22.3304 37.4194L22.3311 37.4202C22.1638 37.5871 22.1418 37.8563 22.2892 38.0493L22.8326 38.7614C22.7595 38.8911 22.694 39.0249 22.6368 39.1624C22.5814 39.2956 22.5332 39.4335 22.493 39.5753L21.6397 39.671C21.3862 39.6838 21.1846 39.8935 21.1846 40.1502V41.049H21.1859C21.1856 41.2851 21.3603 41.4909 21.6007 41.5232L22.4888 41.6426C22.5291 41.7865 22.5775 41.9266 22.6334 42.0622C22.6897 42.1983 22.7536 42.3304 22.8245 42.4579L22.2702 43.1531C22.1208 43.3404 22.1324 43.6143 22.3055 43.7883L22.9301 44.4131C23.096 44.5912 23.3733 44.6177 23.5707 44.4669L24.2831 43.9235C24.4127 43.9966 24.5466 44.062 24.6841 44.1193C24.8173 44.1746 24.955 44.2227 25.0967 44.263L25.1925 45.1165C25.2054 45.37 25.4151 45.5716 25.6718 45.5716H26.5705V45.5702C26.8066 45.5705 27.0124 45.3959 27.0447 45.1554L27.1641 44.2673C27.3009 44.2291 27.4342 44.1835 27.5634 44.131L27.5896 44.121C27.7285 44.0634 27.8637 43.9973 27.9946 43.9235L28.6819 44.4478C28.8704 44.6127 29.1571 44.6053 29.3367 44.4257L29.9721 43.7902L29.9715 43.7896C30.1417 43.6198 30.1609 43.3455 30.0077 43.1529L29.4531 42.458C29.5241 42.3304 29.588 42.1983 29.6442 42.0621C29.7002 41.9265 29.7486 41.7865 29.7888 41.6426L30.6414 41.528C30.8933 41.5134 31.093 41.3045 31.093 41.049V40.1503H31.0922C31.0925 39.909 30.911 39.7011 30.6657 39.6741L29.7846 39.5753C29.7443 39.4334 29.6962 39.2956 29.6408 39.1624C29.5836 39.0249 29.5181 38.891 29.445 38.7614L29.9693 38.0743C30.1342 37.8858 30.1268 37.599 29.9472 37.4194L29.3117 36.7839L29.3111 36.7846C29.1413 36.6144 28.867 36.5952 28.6743 36.7483L27.9794 37.303C27.8519 37.2321 27.7198 37.1682 27.5836 37.112L27.5836 37.112ZM26.1388 38.9694C26.5938 38.9694 27.0058 39.1539 27.304 39.4521C27.6022 39.7503 27.7867 40.1624 27.7867 40.6173C27.7867 41.0723 27.6022 41.4843 27.304 41.7825C27.0058 42.0807 26.5938 42.2652 26.1388 42.2652C25.6838 42.2652 25.2718 42.0807 24.9736 41.7825C24.6754 41.4843 24.4909 41.0723 24.4909 40.6173C24.4909 40.1624 24.6754 39.7503 24.9736 39.4521C25.2718 39.1539 25.6839 38.9694 26.1388 38.9694Z" fill="white"/>
<path d="M47.0272 15.4638C47.306 15.4638 47.5321 15.6899 47.5321 15.9687C47.5321 16.2475 47.306 16.4735 47.0272 16.4735C46.4538 16.4735 45.9043 16.3752 45.4051 16.2096C44.8568 16.0277 44.3717 15.7629 43.984 15.4569C43.6704 15.2094 43.4168 14.9321 43.2402 14.6462C43.0463 14.3325 42.9404 14.0051 42.9404 13.686C42.9404 13.4072 43.1665 13.1812 43.4452 13.1812C44.019 13.1812 44.509 13.2914 44.7271 13.6444C44.8432 13.8323 45.6616 13.7181 45.8824 13.8924C46.1824 14.1292 46.1547 14.2699 46.5883 14.4137C46.9831 14.5447 46.5573 15.4638 47.0272 15.4638L47.0272 15.4638Z" fill="white"/>
<path d="M43.7041 14.8312C43.8903 15.0381 43.8736 15.3569 43.6666 15.5431C43.3537 15.8242 42.975 16.065 42.5519 16.231C42.1621 16.3838 41.7357 16.4736 41.2894 16.4736C41.0105 16.4736 41.4857 16.2475 41.4857 15.9687C41.4857 15.6899 41.4487 14.8986 41.7276 14.8986C42.0452 14.8986 42.0584 14.0726 42.3341 13.9645C42.6395 13.8447 43.6571 14.779 43.7041 14.8312L43.7041 14.8312Z" fill="white"/>
<path d="M44.4814 12.9587C45.4059 12.9587 46.2432 13.3336 46.8491 13.9395C47.455 14.5455 47.8299 15.3827 47.8299 16.3073C47.8299 17.2455 47.4323 18.3142 46.798 19.1107C46.2024 19.8588 45.3916 20.3831 44.4814 20.3831C43.5711 20.3831 42.7604 19.8588 42.1647 19.1107C41.5304 18.3142 41.1328 17.2455 41.1328 16.3073C41.1328 15.3827 41.5077 14.5455 42.1136 13.9395C42.7196 13.3335 43.5567 12.9587 44.4813 12.9587H44.4814ZM46.1352 14.6534C45.712 14.2302 45.1272 13.9684 44.4814 13.9684C43.8355 13.9684 43.2507 14.2302 42.8275 14.6534C42.4043 15.0766 42.1425 15.6614 42.1425 16.3073C42.1425 17.0278 42.455 17.8576 42.9535 18.4836C43.3701 19.0067 43.9093 19.3734 44.4814 19.3734C45.0535 19.3734 45.5926 19.0067 46.0093 18.4836C46.5077 17.8576 46.8202 17.0278 46.8202 16.3073C46.8202 15.6614 46.5584 15.0766 46.1352 14.6534H46.1352Z" fill="white"/>
<path fill-rule="evenodd" clip-rule="evenodd" d="M45.2779 21.0414L45.2797 21.0483L45.1038 21.0951C44.9005 21.1491 44.6918 21.1768 44.4815 21.1768C44.2705 21.1768 44.0611 21.1485 43.8572 21.0941C43.6448 21.0372 43.4383 20.959 43.2466 20.8507C43.1698 20.8072 43.0831 20.787 42.9953 20.8013C42.6944 20.8503 42.3963 20.9255 42.1107 21.0328C41.8489 21.1311 41.5949 21.2585 41.3655 21.4189C40.4713 22.0437 39.5173 22.3359 38.434 22.1132C37.5766 21.937 36.7902 21.4782 36.0405 21.0445C35.499 20.7313 34.9512 20.4303 34.3776 20.1794C34.3676 20.175 34.3574 20.1704 34.3472 20.1666C33.7805 19.9562 33.151 19.9636 32.6488 20.3286C32.4508 20.4725 32.292 20.663 32.1864 20.8838C32.0804 21.1053 32.0319 21.3493 32.0479 21.5946C32.0884 22.2129 32.5163 22.6891 33.0194 23.0059C34.2064 23.7531 35.4253 24.5369 36.7394 25.0435C37.7763 25.4433 38.9258 25.7055 40.0389 25.5326L40.246 25.5005L40.2519 25.71C40.3113 27.8315 40.3462 30.1954 40.3686 32.3179H48.2274C48.25 30.1755 48.284 27.7919 48.34 25.6505L48.3531 25.1492L48.6684 25.5392C48.8277 25.7364 48.9678 25.9489 49.0865 26.1729C49.3942 26.7536 49.5541 27.4033 49.5541 28.0604V31.6547C49.5541 32.2943 49.8194 32.8875 50.4184 33.1694C50.6086 33.2589 50.8167 33.3065 51.027 33.3065C51.2373 33.3065 51.4454 33.259 51.6357 33.1694C52.2347 32.8875 52.5 32.2943 52.5 31.6547V28.0604C52.5 26.2037 51.805 24.3528 50.5589 22.9729C49.3606 21.6457 47.7303 20.9289 45.9545 20.8C45.877 20.7943 45.7982 20.8041 45.7293 20.8415C45.5845 20.9201 45.4337 20.9879 45.2779 21.0414L45.2779 21.0414ZM45.0357 23.0133V28.93L44.4815 29.4842L43.9273 28.93V23.072L43.6769 23.2045C43.4968 23.2993 43.2738 23.2301 43.179 23.05C43.0841 22.8699 43.1533 22.6469 43.3334 22.5521L44.362 22.0077L44.3641 22.0067L44.3652 22.006C44.469 21.9515 44.5971 21.9473 44.7087 22.006L45.6296 22.4934C45.8098 22.5882 45.8789 22.8112 45.784 22.9913C45.6892 23.1715 45.4663 23.2406 45.2861 23.1457L45.0357 23.0133L45.0357 23.0133ZM40.3793 33.1173C40.3814 33.35 40.3833 33.6507 40.3851 33.8834C40.411 37.2338 40.4115 40.5842 40.4111 43.9346L40.4108 45.3349C40.4304 45.7577 40.5834 46.1717 40.861 46.4941C41.1529 46.8331 41.5581 47.0413 42.0094 47.0413C42.4607 47.0413 42.8658 46.8331 43.1578 46.4941C43.4556 46.1482 43.6101 45.6967 43.6101 45.2422V35.7001L43.695 35.6456C43.8757 35.5295 44.0854 35.4604 44.3011 35.4604H44.3033C44.5156 35.4604 44.7206 35.5206 44.8971 35.6392L44.9788 35.6941V45.2422C44.9788 45.6967 45.1332 46.1482 45.431 46.494C45.723 46.833 46.1281 47.0413 46.5794 47.0413C47.0308 47.0413 47.4359 46.833 47.7278 46.494C48.0257 46.1482 48.1801 45.6967 48.1801 45.2422C48.1801 41.8414 48.1798 38.4405 48.2024 35.0398C48.2066 34.4217 48.2112 33.7355 48.2167 33.1173H40.3793L40.3793 33.1173Z" fill="white"/>
<path d="M12.9726 15.4638C12.6938 15.4638 12.4678 15.6899 12.4678 15.9687C12.4678 16.2475 12.6938 16.4735 12.9726 16.4735C13.5461 16.4735 14.0956 16.3752 14.5948 16.2096C15.143 16.0277 15.6281 15.7629 16.0158 15.4569C16.3294 15.2094 16.583 14.9321 16.7596 14.6462C16.9535 14.3325 17.0594 14.0051 17.0594 13.686C17.0594 13.4072 16.8334 13.1812 16.5546 13.1812C15.9808 13.1812 15.4909 13.2914 15.2728 13.6444C15.1567 13.8323 14.3383 13.7181 14.1174 13.8924C13.8174 14.1292 13.8452 14.2699 13.4116 14.4137C13.0167 14.5447 13.4426 15.4638 12.9726 15.4638L12.9726 15.4638Z" fill="white"/>
<path d="M16.2959 14.8312C16.1097 15.0381 16.1265 15.3569 16.3334 15.5431C16.6463 15.8242 17.025 16.065 17.4481 16.231C17.8379 16.3838 18.2643 16.4736 18.7107 16.4736C18.9895 16.4736 18.5144 16.2475 18.5144 15.9687C18.5144 15.6899 18.5513 14.8986 18.2724 14.8986C17.9549 14.8986 17.9416 14.0726 17.6659 13.9645C17.3606 13.8447 16.3429 14.779 16.2959 14.8312L16.2959 14.8312Z" fill="white"/>
<path d="M15.5185 12.9587C14.5939 12.9587 13.7567 13.3336 13.1507 13.9395C12.5448 14.5455 12.1699 15.3827 12.1699 16.3073C12.1699 17.2455 12.5675 18.3142 13.2018 19.1107C13.7975 19.8588 14.6082 20.3831 15.5185 20.3831C16.4286 20.3831 17.2395 19.8588 17.8351 19.1107C18.4694 18.3142 18.867 17.2455 18.867 16.3073C18.867 15.3827 18.4921 14.5455 17.8862 13.9395C17.2802 13.3335 16.4431 12.9587 15.5185 12.9587H15.5185ZM13.8646 14.6534C14.2878 14.2302 14.8726 13.9684 15.5185 13.9684C16.1643 13.9684 16.7491 14.2302 17.1723 14.6534C17.5955 15.0766 17.8573 15.6614 17.8573 16.3073C17.8573 17.0278 17.5448 17.8576 17.0463 18.4836C16.6297 19.0067 16.0905 19.3734 15.5184 19.3734C14.9463 19.3734 14.4072 19.0067 13.9906 18.4836C13.4921 17.8576 13.1796 17.0278 13.1796 16.3073C13.1796 15.6614 13.4414 15.0766 13.8646 14.6534H13.8646Z" fill="white"/>
<path fill-rule="evenodd" clip-rule="evenodd" d="M14.722 21.0414L14.7202 21.0483L14.8962 21.0951C15.0994 21.1491 15.3082 21.1768 15.5185 21.1768C15.7295 21.1768 15.9389 21.1485 16.1427 21.0941C16.3551 21.0372 16.5617 20.959 16.7534 20.8507C16.8302 20.8072 16.9168 20.787 17.0046 20.8013C17.3055 20.8503 17.6037 20.9255 17.8893 21.0328C18.1511 21.1311 18.405 21.2585 18.6345 21.4189C19.5287 22.0437 20.4827 22.3359 21.566 22.1132C22.4234 21.937 23.2098 21.4782 23.9595 21.0445C24.5009 20.7313 25.0487 20.4303 25.6223 20.1794C25.6324 20.175 25.6425 20.1704 25.6528 20.1666C26.2195 19.9562 26.8489 19.9636 27.3511 20.3286C27.5491 20.4725 27.708 20.663 27.8136 20.8838C27.9196 21.1053 27.9681 21.3493 27.952 21.5946C27.9115 22.2129 27.4837 22.6891 26.9805 23.0059C25.7935 23.7531 24.5746 24.5369 23.2606 25.0435C22.2237 25.4433 21.0741 25.7055 19.9611 25.5326L19.754 25.5005L19.7481 25.71C19.6886 27.8315 19.6538 30.1954 19.6313 32.3179H11.7725C11.75 30.1755 11.7159 27.7919 11.66 25.6505L11.6469 25.1492L11.3316 25.5392C11.1722 25.7364 11.0322 25.9489 10.9134 26.1729C10.6057 26.7536 10.4459 27.4033 10.4459 28.0604V31.6547C10.4459 32.2943 10.1806 32.8875 9.58159 33.1694C9.39138 33.2589 9.18328 33.3065 8.97293 33.3065C8.76262 33.3065 8.55452 33.2589 8.3643 33.1694C7.76526 32.8875 7.5 32.2943 7.5 31.6547V28.0604C7.5 26.2037 8.19499 24.3528 9.44103 22.9729C10.6394 21.6457 12.2697 20.9289 14.0455 20.8C14.1229 20.7943 14.2017 20.8041 14.2707 20.8415C14.4154 20.9201 14.5663 20.9879 14.722 21.0414L14.722 21.0414ZM14.9642 23.0133V28.93L15.5185 29.4842L16.0727 28.93V23.072L16.323 23.2045C16.5032 23.2993 16.7262 23.2301 16.821 23.05C16.9158 22.8699 16.8467 22.6469 16.6665 22.5521L15.6379 22.0077L15.6359 22.0067L15.6348 22.006C15.5309 21.9515 15.4029 21.9473 15.2912 22.006L14.3703 22.4934C14.1902 22.5882 14.1211 22.8112 14.2159 22.9913C14.3107 23.1715 14.5337 23.2406 14.7138 23.1457L14.9642 23.0133L14.9642 23.0133ZM19.6207 33.1173C19.6186 33.35 19.6167 33.6507 19.6149 33.8834C19.5889 37.2338 19.5884 40.5842 19.5889 43.9346L19.5891 45.3349C19.5696 45.7577 19.4166 46.1717 19.139 46.4941C18.847 46.8331 18.4419 47.0413 17.9906 47.0413C17.5393 47.0413 17.1341 46.8331 16.8422 46.4941C16.5443 46.1482 16.3899 45.6967 16.3899 45.2422V35.7001L16.305 35.6456C16.1242 35.5295 15.9146 35.4604 15.6988 35.4604H15.6967C15.4843 35.4604 15.2794 35.5206 15.1028 35.6392L15.0212 35.6941V45.2421C15.0212 45.6967 14.8668 46.1482 14.5689 46.494C14.277 46.833 13.8719 47.0413 13.4205 47.0413C12.9692 47.0413 12.5641 46.833 12.2721 46.494C11.9743 46.1482 11.8199 45.6967 11.8199 45.2421C11.8199 41.8414 11.8202 38.4405 11.7975 35.0398C11.7934 34.4217 11.7887 33.7355 11.7833 33.1173H19.6207L19.6207 33.1173Z" fill="white"/>
</svg>
