<svg width="60" height="60" viewBox="0 0 60 60" fill="none" xmlns="http://www.w3.org/2000/svg">
<path d="M32.5644 24.9436C32.752 24.4636 33.2932 24.2265 33.7732 24.4141C34.2532 24.6017 34.4903 25.1429 34.3028 25.6229L32.9684 29.938H30.9619L32.5644 24.9436V24.9436Z" fill="white"/>
<path d="M42.9006 29.938L41.5662 25.6229C41.3786 25.1429 41.6157 24.6017 42.0957 24.4141C42.5757 24.2265 43.117 24.4636 43.3045 24.9436L44.9071 29.938H42.9006Z" fill="white"/>
<path d="M21.5811 28.3227C21.9924 28.3227 22.3258 28.6561 22.3258 29.0673C22.3258 29.4786 21.9924 29.8119 21.5811 29.8119C20.7353 29.8119 19.9249 29.6669 19.1885 29.4226C18.3798 29.1544 17.6644 28.7638 17.0926 28.3125C16.63 27.9473 16.2559 27.5385 15.9954 27.1167C15.7095 26.654 15.5532 26.1711 15.5532 25.7004C15.5532 25.2892 15.8866 24.9558 16.2978 24.9558C17.1441 24.9558 17.8668 25.1184 18.1885 25.6391C18.3597 25.9163 19.5668 25.7478 19.8926 26.005C20.3351 26.3542 20.2941 26.5616 20.9337 26.7738C21.5161 26.967 20.888 28.3227 21.5811 28.3227L21.5811 28.3227Z" fill="white"/>
<path d="M16.6793 27.3895C16.954 27.6947 16.9292 28.1648 16.6241 28.4395C16.1625 28.8541 15.6039 29.2093 14.9799 29.4541C14.4049 29.6796 13.776 29.812 13.1176 29.812C12.7064 29.812 13.4072 29.4786 13.4072 29.0674C13.4072 28.6561 13.3527 27.4889 13.764 27.4889C14.2324 27.4889 14.252 26.2706 14.6586 26.1111C15.109 25.9344 16.61 27.3125 16.6793 27.3895H16.6793Z" fill="white"/>
<path d="M17.8257 24.6277C19.1895 24.6277 20.4243 25.1805 21.318 26.0743C22.2118 26.9681 22.7647 28.2029 22.7647 29.5667C22.7647 30.9504 22.1783 32.5268 21.2427 33.7016C20.3641 34.805 19.1682 35.5784 17.8257 35.5784C16.4832 35.5784 15.2873 34.805 14.4087 33.7016C13.4732 32.5268 12.8867 30.9504 12.8867 29.5667C12.8867 28.2029 13.4396 26.9681 14.3334 26.0743C15.2272 25.1805 16.4619 24.6277 17.8257 24.6277H17.8257ZM20.2651 27.1273C19.6409 26.503 18.7783 26.1169 17.8257 26.1169C16.873 26.1169 16.0105 26.503 15.3863 27.1273C14.7621 27.7515 14.3759 28.614 14.3759 29.5667C14.3759 30.6294 14.8369 31.8533 15.5722 32.7766C16.1866 33.5483 16.9819 34.0892 17.8257 34.0892C18.6695 34.0892 19.4648 33.5483 20.0793 32.7766C20.8145 31.8533 21.2755 30.6294 21.2755 29.5667C21.2755 28.614 20.8893 27.7515 20.2651 27.1273Z" fill="white"/>
<path fill-rule="evenodd" clip-rule="evenodd" d="M19.7016 36.0432L19.6777 36.0859C19.6579 36.1212 19.6427 36.1588 19.632 36.1978C19.2723 37.5138 19.6918 37.4342 17.8635 37.4342C16.0402 37.4342 16.3747 37.5223 16.0196 36.2056C15.9733 36.0341 15.8432 35.8983 15.6706 35.8511C14.8835 35.6355 13.6873 36.2397 13.0275 36.6263C12.7425 36.7934 12.464 36.9723 12.1912 37.1586C11.6907 37.5004 11.2032 37.8702 10.7396 38.2605C10.4218 38.528 10.0666 38.8369 9.79605 39.1526C9.197 39.8517 8.71032 40.6355 8.37972 41.4962C8.07629 42.286 7.91522 43.1096 7.89795 43.9533L7.89823 44.1047C7.89826 44.1352 7.90093 44.1657 7.9066 44.1956L8.78578 48.832C8.85685 49.2069 8.95571 49.6446 9.22091 49.9344C9.50271 50.2423 9.88732 50.425 10.307 50.425C10.7267 50.425 11.1113 50.2422 11.3931 49.9344C11.656 49.6472 11.8061 49.2746 11.8233 48.8875L11.8232 48.8127C11.8232 48.7822 11.8205 48.7518 11.8148 48.7218L10.9325 44.069L10.9329 44.0439C10.9419 43.3779 11.1016 42.7379 11.4594 42.1719C11.5623 42.0092 11.6793 41.8558 11.8078 41.7125L12.2221 41.2509L12.2406 41.8709C12.277 43.093 12.5203 44.3035 12.7572 45.4994C13.1843 47.6554 13.5467 49.6708 13.1155 51.8694C13.0629 52.1376 13.2388 52.3983 13.507 52.4506C13.6312 52.4715 13.8278 52.4683 13.9571 52.4718C14.2888 52.4806 14.621 52.4848 14.9529 52.4884C15.9037 52.4986 16.8549 52.5005 17.8058 52.5C18.7618 52.4995 19.718 52.4962 20.6739 52.4864C21.0059 52.4829 21.338 52.479 21.6699 52.4715C21.8037 52.4685 21.9865 52.4724 22.1172 52.4543C22.3877 52.4158 22.5765 52.1653 22.5376 51.8946C22.2005 49.5461 22.5408 47.3574 22.9479 45.051C23.1344 43.9947 23.3338 42.9129 23.3853 41.8404L23.4138 41.2455L23.8162 41.6846C23.9547 41.8358 24.0803 41.9985 24.1899 42.1719C24.5603 42.7577 24.7764 43.3972 24.7159 44.0975L24.3253 48.6187C24.3236 48.638 24.322 48.6577 24.322 48.6771C24.322 49.0909 24.474 49.4934 24.7539 49.7991C25.0357 50.107 25.4203 50.2898 25.84 50.2898C26.2597 50.2898 26.6443 50.107 26.9261 49.7991C27.2011 49.4986 27.3241 49.0888 27.3586 48.6901L27.7497 44.1635C27.7513 44.1442 27.753 44.1245 27.753 44.1051C27.753 43.2083 27.5912 42.3333 27.2697 41.4962C26.9391 40.6355 26.4523 39.8517 25.8534 39.1526C25.7582 39.0417 25.6346 38.9327 25.525 38.8362C25.3397 38.6732 25.1477 38.5167 24.9543 38.3636C24.4509 37.9652 23.9285 37.5843 23.3981 37.2228C22.9524 36.9191 22.4947 36.6242 22.0249 36.3592C21.6771 36.1631 21.2901 35.9597 20.9111 35.8321C20.5656 35.7157 20.1304 35.6422 19.8281 35.901C19.7792 35.9428 19.7368 35.9901 19.7016 36.0432H19.7016Z" fill="white"/>
<path d="M20.461 36.5963C20.7357 36.8999 20.7123 37.3688 20.4087 37.6434C20.2124 37.821 19.9471 37.8739 19.7097 37.8072H15.9414C15.81 37.8441 15.6702 37.8444 15.5381 37.8072H15.5379V37.8071C15.4314 37.777 15.3301 37.7227 15.2425 37.6434C14.9389 37.3688 14.9154 36.8999 15.1902 36.5963C15.1914 36.5949 15.6417 36.1108 15.8106 34.995C15.8716 34.5887 16.2507 34.3087 16.657 34.3697H18.9941C19.4005 34.3087 19.7795 34.5887 19.8405 34.995C20.0095 36.1108 20.4598 36.5949 20.461 36.5963H20.461Z" fill="white"/>
<path fill-rule="evenodd" clip-rule="evenodd" d="M52.1019 25.0611V8.43493C52.1019 7.91862 51.6833 7.5 51.1669 7.5H24.7016C24.1852 7.5 23.7666 7.91862 23.7666 8.43493V25.0611C23.7666 25.5775 24.1852 25.9961 24.7016 25.9961H32.1489H34.1554H41.7131H43.7196H51.1669C51.6833 25.9961 52.1019 25.5775 52.1019 25.0611ZM27.1827 12.5049H33.2453V14.3748H27.1827V12.5049ZM27.1827 15.7601H35.2463V17.63H27.1827V15.7601ZM27.1827 19.1213H37.1072V20.9912H27.1827V19.1213ZM38.3254 14.8926C38.3927 14.8926 38.4585 14.899 38.5222 14.9113L39.6876 13.5502C39.855 13.3546 40.1494 13.3317 40.345 13.4991C40.3936 13.5407 40.4316 13.5902 40.4586 13.6441L44.0289 20.0707L46.1132 12.4283C46.0882 12.4075 46.0642 12.3856 46.0412 12.3627C45.8534 12.1749 45.7372 11.9154 45.7372 11.629C45.7372 11.3441 45.8537 11.0849 46.0421 10.8961L46.0412 10.8952C46.229 10.7074 46.4884 10.5912 46.775 10.5912C47.0603 10.5912 47.3191 10.7074 47.5069 10.8951L47.5088 10.897C47.6965 11.0848 47.8128 11.3437 47.8128 11.629C47.8128 11.9155 47.6965 12.1749 47.5087 12.3627C47.4973 12.3741 47.4854 12.3849 47.4731 12.3949C47.3466 12.5103 47.192 12.5949 47.0214 12.6369L44.7574 20.9383C44.8578 20.9886 44.949 21.0547 45.0276 21.1333C45.2154 21.3211 45.3317 21.5806 45.3317 21.8671C45.3317 22.1536 45.2154 22.413 45.0276 22.6008C44.8398 22.7886 44.5804 22.9049 44.2939 22.9049C44.0073 22.9049 43.7479 22.7886 43.5601 22.6008C43.3723 22.413 43.256 22.1536 43.256 21.8671C43.256 21.5828 43.3705 21.3251 43.5557 21.1377L39.9601 14.6656L39.2613 15.4816C39.3266 15.6174 39.3632 15.7697 39.3632 15.9304C39.3632 16.2169 39.247 16.4764 39.0592 16.6642C38.8714 16.852 38.612 16.9682 38.3255 16.9682C38.0406 16.9682 37.7814 16.8517 37.5926 16.6633L37.5917 16.6642C37.4039 16.4764 37.2877 16.217 37.2877 15.9304C37.2877 15.6439 37.4039 15.3844 37.5917 15.1966C37.6031 15.1852 37.615 15.1745 37.6273 15.1645C37.8126 14.9956 38.0577 14.8926 38.3255 14.8926L38.3254 14.8926Z" fill="white"/>
</svg>
