<svg width="80" height="80" viewBox="0 0 80 80" fill="none" xmlns="http://www.w3.org/2000/svg">
<g clip-path="url(#clip0_3665_1229)">
<path d="M0.664973 39.9941C-2.78503 60.4664 18.6091 83.2472 40.0003 79.4863C61.2209 75.7461 83.3032 61.4406 79.3444 39.9941C74.8944 15.8022 61.4238 4.21253 40.0003 0.501831C17.512 -3.39485 4.2885 18.4886 0.664973 39.9941Z" fill="#8CCC93"/>
<path d="M67.7207 31.082V30.896H68.7236V31.082H68.3354V32.1358H68.1089V31.082H67.7207Z" fill="white"/>
<path d="M69.1176 31.1528V32.1358H68.894V30.896H69.2293L69.5676 31.8347L69.9029 30.896H70.2411V32.1358H70.0146V31.1528L69.6529 32.1358H69.4823L69.1176 31.1528Z" fill="white"/>
<path d="M40.8824 67.6872C40.7896 67.6875 40.6991 67.6586 40.6236 67.6046L37.45 65.3138C37.2255 65.163 37.0268 64.9765 36.8618 64.7618C35.4794 64.0887 34.0294 63.9293 32.8647 64.3219C32.754 64.3611 32.6322 64.3545 32.5263 64.3035C32.4204 64.2526 32.339 64.1615 32.3 64.0503C32.261 63.9392 32.2676 63.817 32.3184 63.7107C32.3691 63.6044 32.4599 63.5227 32.5706 63.4836C33.7042 63.1281 34.9195 63.1332 36.05 63.4983C35.7325 63.0898 35.4594 62.6485 35.2353 62.1817C34.6677 61.0806 34.1118 59.9529 33.5853 58.8312C33.3241 58.3393 33.1528 57.8044 33.0794 57.2518C33.0618 56.6368 33.1846 56.0259 33.4383 55.4658C33.9134 54.3672 34.4781 53.3097 35.1265 52.3042C36.0383 50.7987 36.8912 49.3758 37.1853 47.7404C37.1918 47.6802 37.2104 47.6219 37.2402 47.5692C37.2699 47.5166 37.3101 47.4706 37.3582 47.4341C37.4064 47.3976 37.4615 47.3714 37.5201 47.3572C37.5788 47.3429 37.6397 47.3409 37.6992 47.3512C37.7586 47.3615 37.8153 47.384 37.8658 47.4171C37.9162 47.4503 37.9594 47.4936 37.9926 47.5441C38.0257 47.5947 38.0482 47.6516 38.0586 47.7113C38.069 47.7709 38.0671 47.8321 38.053 47.8909C37.7383 49.6917 36.7912 51.2563 35.8765 52.7647C35.2565 53.7292 34.7145 54.742 34.2559 55.7935C34.0558 56.2271 33.9553 56.7002 33.9618 57.178C34.0302 57.6235 34.1745 58.0539 34.3883 58.4503C34.9089 59.5633 35.4589 60.6821 36.0206 61.7743C36.2184 62.1863 36.4589 62.5762 36.7383 62.9374C37.0395 62.9922 37.3349 63.0752 37.6206 63.1854C37.7677 63.2356 37.9706 63.3035 38.0294 63.3123H38.0971C38.6471 63.3684 39.1883 63.4216 39.7265 63.516C40.6435 63.5407 41.5303 63.8501 42.2647 64.4016C42.3544 64.4676 42.416 64.5652 42.4371 64.6747C42.4582 64.7843 42.4373 64.8979 42.3785 64.9927C42.3198 65.0874 42.2276 65.1564 42.1203 65.1859C42.013 65.2153 41.8986 65.203 41.8 65.1515C41.1254 64.7828 40.3935 64.5312 39.6353 64.4075C39.2077 64.4195 38.7839 64.492 38.3765 64.623C39.3661 65.3144 40.3012 66.0813 41.1736 66.9168C41.2559 66.9939 41.3062 67.0994 41.3143 67.2121C41.3225 67.3249 41.288 67.4366 41.2177 67.5249C41.177 67.5748 41.1259 67.6153 41.0679 67.6433C41.01 67.6713 40.9467 67.6863 40.8824 67.6872Z" fill="#231F20"/>
<path d="M42.9411 60.124C42.8572 60.1246 42.775 60.1009 42.7041 60.0559C42.6332 60.0109 42.5766 59.9465 42.5411 59.8702C42.3984 59.5554 42.2312 59.2524 42.0411 58.9639C41.7056 58.6171 41.3235 58.319 40.9058 58.0783C40.6983 57.9553 40.5116 57.7998 40.3529 57.6178C40.0588 57.4731 39.7911 57.3226 39.5529 57.172C38.8206 56.7381 38.3382 56.4517 37.5558 56.679C37.4447 56.712 37.325 56.6995 37.223 56.6442C37.1211 56.5889 37.0451 56.4952 37.0117 56.3838C36.9795 56.2719 36.9923 56.1517 37.0472 56.0491C37.1022 55.9465 37.195 55.8695 37.3058 55.8347C37.9013 55.6501 38.5435 55.69 39.1117 55.9469C39.0206 55.8052 38.9353 55.6517 38.85 55.5159C38.3235 54.6303 37.8088 53.7034 37.3206 52.7912C37.0736 52.3875 36.9077 51.9392 36.8323 51.4716C36.805 50.9544 36.9114 50.4388 37.1411 49.9749C37.562 49.085 38.0611 48.2344 38.6323 47.4332C39.4294 46.2524 40.1823 45.113 40.4147 43.8229C40.4368 43.7082 40.5027 43.6067 40.5983 43.54C40.6939 43.4733 40.8116 43.4467 40.9264 43.4657C41.0414 43.4866 41.1435 43.5524 41.2102 43.6487C41.2769 43.745 41.3029 43.8639 41.2823 43.9794C41.0176 45.4554 40.1764 46.71 39.3647 47.9262C38.824 48.6842 38.3506 49.4882 37.95 50.3292C37.7828 50.6536 37.6999 51.015 37.7088 51.3801C37.775 51.7323 37.9067 52.0688 38.097 52.372C38.5794 53.2753 39.0882 54.1816 39.6088 55.0672C39.7845 55.3887 39.9924 55.6914 40.2294 55.9705C40.6055 55.9194 40.9882 55.9475 41.3529 56.0532C41.5 56.124 41.647 56.189 41.7941 56.2451C41.9207 56.2356 42.0479 56.2476 42.1705 56.2805C42.6622 56.4173 43.1405 56.5981 43.6 56.8207L43.7117 56.8709C43.9724 56.9634 44.2261 57.0748 44.4706 57.2045C44.5711 57.2577 44.6472 57.3478 44.6832 57.456C44.7192 57.5642 44.7122 57.6821 44.6636 57.7852C44.6151 57.8884 44.5288 57.9687 44.4227 58.0096C44.3166 58.0504 44.1989 58.0486 44.0941 58.0045C43.8 57.8805 43.5705 57.7801 43.3823 57.7093C43.1353 57.6207 42.8823 57.544 42.6205 57.4672C42.3588 57.3905 42.0029 57.2812 41.6794 57.172L41.4353 57.2163C41.9587 57.528 42.4075 57.9512 42.75 58.4561C43.0147 58.7851 43.2207 59.1577 43.3588 59.5572C43.3988 59.6639 43.396 59.7819 43.351 59.8866C43.306 59.9912 43.2224 60.0742 43.1176 60.1181C43.06 60.1335 42.9996 60.1355 42.9411 60.124Z" fill="#231F20"/>
<path d="M55.9618 19.6104C54.403 16.3868 49.2736 14.7011 46.8442 16.9978C44.6754 19.0208 42.7523 21.2939 41.1148 23.7698C38.9951 26.9351 36.6121 29.9145 33.9913 32.6761L23.1177 38.0812C22.7649 38.2516 22.461 38.5091 22.2343 38.8294C22.0076 39.1498 21.8655 39.5227 21.8214 39.9131C21.7774 40.3036 21.8327 40.6989 21.9822 41.0621C22.1318 41.4252 22.3707 41.7444 22.6765 41.9897C23.0589 42.3033 23.4606 42.5922 23.8795 42.8547C23.7089 43.0229 23.5383 43.1912 23.3707 43.3624C22.871 43.853 22.4208 44.3919 22.0265 44.9713C19.6442 45.1405 17.2618 45.415 14.8795 45.7949C14.1354 45.913 13.3236 46.0901 12.7824 46.6805C11.9765 47.5927 12.1942 48.9949 12.6089 50.0517C13.256 51.6665 14.5707 53.2281 16.2795 52.9417C16.6859 52.8559 17.0808 52.7222 17.456 52.5432C19.3501 51.7225 21.2354 50.8645 23.1118 49.969C26.6736 52.9506 31.703 54.0517 36.2383 52.9949C41.1001 51.8583 44.4383 48.127 46.7265 43.6694C48.8912 39.4539 48.8442 34.6244 51.553 30.7366C52.7648 28.9949 54.3383 26.6037 55.4412 24.5934C56.7677 24.7617 56.2295 24.5934 57.8412 24.558C63.2354 24.4104 58.3648 20.8118 55.9618 19.6104Z" fill="#231F20"/>
<path d="M49.556 18.1667C49.6707 18.1258 49.7968 18.132 49.907 18.184C50.0171 18.236 50.1024 18.3295 50.1442 18.4442C50.2098 18.5979 50.2163 18.7706 50.1625 18.9288C50.1087 19.087 49.9984 19.2197 49.8528 19.301C49.7073 19.3824 49.5369 19.4067 49.3745 19.3693C49.2121 19.332 49.0693 19.2355 48.9737 19.0986C48.878 18.9617 48.8363 18.7941 48.8566 18.6281C48.8769 18.4621 48.9577 18.3096 49.0835 18.2C49.2093 18.0904 49.3711 18.0314 49.5377 18.0345C49.7043 18.0377 49.8638 18.1026 49.9854 18.2169" fill="white"/>
<path d="M15.7236 33.3373C15.8934 33.3373 16.0595 33.2867 16.2007 33.192C16.3419 33.0973 16.452 32.9627 16.517 32.8051C16.582 32.6476 16.599 32.4743 16.5659 32.3071C16.5328 32.1399 16.451 31.9863 16.3309 31.8658C16.2107 31.7452 16.0577 31.6631 15.8911 31.6298C15.7245 31.5966 15.5518 31.6137 15.3949 31.6789C15.238 31.7441 15.1039 31.8546 15.0095 31.9964C14.9151 32.1381 14.8648 32.3048 14.8648 32.4753C14.8644 32.5886 14.8863 32.7008 14.9293 32.8056C14.9724 32.9104 15.0356 33.0055 15.1154 33.0857C15.1953 33.1658 15.2901 33.2293 15.3945 33.2724C15.4988 33.3156 15.6107 33.3377 15.7236 33.3373Z" fill="white"/>
<path d="M27.8617 33.225C28.0319 33.2255 28.1983 33.1754 28.34 33.0809C28.4817 32.9864 28.5922 32.8518 28.6576 32.6942C28.7229 32.5366 28.7402 32.363 28.7071 32.1955C28.6741 32.028 28.5923 31.8742 28.472 31.7534C28.3517 31.6327 28.1984 31.5506 28.0315 31.5174C27.8646 31.4842 27.6917 31.5015 27.5347 31.5672C27.3776 31.6328 27.2435 31.7437 27.1494 31.8859C27.0552 32.0281 27.0053 32.1952 27.0059 32.3659C27.0059 32.5937 27.096 32.8122 27.2565 32.9733C27.4171 33.1344 27.6348 33.225 27.8617 33.225Z" fill="white"/>
<path d="M32.9029 37.9394C32.7319 37.8469 32.5315 37.8259 32.3452 37.8813C32.1589 37.9366 32.002 38.0636 31.9088 38.2346C31.5802 38.9011 31.0114 39.4172 30.3176 39.6782C30.0134 39.786 29.6856 39.808 29.3698 39.7419C29.054 39.6758 28.7623 39.5241 28.5264 39.3033C27.8 38.5269 28.0823 37.1188 28.4529 35.8435C28.495 35.6921 28.4879 35.5313 28.4326 35.3842C28.3773 35.2372 28.2767 35.1118 28.1454 35.0262C28.0142 34.9405 27.8591 34.8992 27.7028 34.9081C27.5465 34.9171 27.3971 34.9759 27.2764 35.0759C26.7823 35.501 26.3 35.8848 25.8353 35.8907C25.7169 35.8825 25.6043 35.8359 25.5147 35.7579C25.5029 35.5314 25.4794 35.3058 25.4441 35.0819C25.4202 34.9292 25.3493 34.788 25.2413 34.678C25.1332 34.568 24.9935 34.4948 24.8418 34.4687C24.6901 34.4426 24.5341 34.465 24.3957 34.5326C24.2574 34.6002 24.1436 34.7097 24.0705 34.8457C23.9575 35.0577 23.8968 35.2939 23.8938 35.5343C23.8907 35.7747 23.9453 36.0124 24.0529 36.2272C24.0265 37.1909 23.7265 38.127 23.1882 38.9254C22.7558 39.5571 22.2264 39.9291 21.7617 39.9084C21.1 39.8848 20.5676 39.0789 20.4323 38.3114C20.3589 37.7477 20.3422 37.178 20.3823 36.611C20.4114 36.1194 20.4114 35.6266 20.3823 35.135C20.3746 35.0381 20.3479 34.9436 20.3038 34.8571C20.2597 34.7705 20.1991 34.6935 20.1254 34.6304C20.0516 34.5674 19.9662 34.5195 19.8741 34.4896C19.7819 34.4597 19.6848 34.4483 19.5882 34.456C19.4916 34.4638 19.3975 34.4905 19.3113 34.5348C19.225 34.579 19.1483 34.6399 19.0855 34.7139C19.0227 34.7879 18.975 34.8736 18.9452 34.9662C18.9154 35.0587 18.904 35.1562 18.9117 35.2531C18.9368 35.6896 18.9368 36.1272 18.9117 36.5638C18.8654 37.2326 18.8891 37.9044 18.9823 38.5682C19.0447 38.9283 19.1565 39.278 19.3147 39.6073C19.1743 39.5654 19.0247 39.5663 18.8849 39.6099C18.745 39.6535 18.6213 39.7379 18.5294 39.8523C17.6 40.9859 17.0176 40.8117 16.5235 40.4575C15.8588 39.9763 15.6911 38.5948 15.6205 38.0044C15.5549 37.0248 15.6212 36.0407 15.8176 35.0789C15.8327 34.9831 15.8288 34.8854 15.8062 34.7911C15.7836 34.6969 15.7427 34.608 15.6859 34.5296C15.6291 34.4512 15.5575 34.3848 15.4751 34.3342C15.3927 34.2836 15.3012 34.2497 15.2058 34.2346C15.1104 34.2195 15.013 34.2234 14.9191 34.2461C14.8252 34.2687 14.7367 34.3098 14.6586 34.3668C14.5804 34.4238 14.5143 34.4957 14.4639 34.5784C14.4134 34.661 14.3797 34.7529 14.3647 34.8486C14.1452 35.945 14.0769 37.0664 14.1617 38.1815C14.3176 39.4745 14.6176 40.9003 15.6647 41.656C16.1166 41.9976 16.6638 42.1886 17.2294 42.2021C17.9441 42.2021 18.7853 41.8627 19.6676 40.7911C19.7556 40.6831 19.8108 40.5519 19.8264 40.4132C20.0531 40.7032 20.3388 40.9414 20.6644 41.1119C20.99 41.2824 21.348 41.3814 21.7147 41.4021H21.7941C22.75 41.4021 23.697 40.8117 24.4058 39.7756C24.9023 39.0374 25.2445 38.2059 25.4117 37.3313C25.5588 37.3683 25.7101 37.3862 25.8617 37.3844C26.1337 37.3802 26.4031 37.3303 26.6588 37.2368C26.5441 38.2671 26.6588 39.4509 27.4647 40.3306C27.8916 40.7558 28.4283 41.0532 29.0143 41.1893C29.6004 41.3255 30.2126 41.2949 30.7823 41.101C31.8374 40.7222 32.7078 39.9521 33.2147 38.949C33.2619 38.8625 33.2914 38.7674 33.3012 38.6693C33.3111 38.5712 33.3012 38.4721 33.2721 38.3778C33.243 38.2836 33.1953 38.1963 33.1319 38.121C33.0685 38.0456 32.9906 37.9839 32.9029 37.9394Z" fill="white"/>
<path d="M69.2853 37.4908C69.1055 37.4153 68.9032 37.4146 68.7229 37.4888C68.5425 37.5629 68.3989 37.7059 68.3236 37.8863C68.2142 38.1319 68.0375 38.3411 67.8141 38.4895C67.5906 38.638 67.3297 38.7196 67.0618 38.7247H67.0412C66.7694 38.7146 66.5064 38.6255 66.284 38.4683C66.0616 38.3111 65.8894 38.0926 65.7883 37.8391C65.6532 37.3265 65.6321 36.7903 65.7265 36.2686C65.7643 35.9295 65.7839 35.5885 65.7853 35.2472C65.7844 34.8291 65.7004 34.4153 65.5383 34.0301C65.3762 33.6449 65.1392 33.2959 64.8412 33.0037C64.6499 32.8246 64.4224 32.689 64.1743 32.606C63.9261 32.5229 63.6631 32.4945 63.403 32.5225C62.8765 32.5786 62.2089 32.8708 61.7089 33.8391C61.7089 33.5085 61.7089 33.1749 61.7089 32.8413C61.7178 32.6456 61.649 32.4543 61.5174 32.3095C61.3859 32.1648 61.2024 32.0784 61.0074 32.0694C60.8124 32.0604 60.6218 32.1295 60.4776 32.2615C60.3333 32.3936 60.2472 32.5777 60.2383 32.7734C60.1191 34.1005 59.7635 35.3954 59.1883 36.5963C58.9736 37.045 58.1883 38.5033 57.1 38.4413C56.5353 38.4059 56.0795 37.9454 55.8206 37.4465C57.8471 36.1033 58.8265 34.707 58.7324 33.2871C58.7014 32.903 58.5641 32.5353 58.336 32.2255C58.1078 31.9156 57.7979 31.676 57.4412 31.5336C56.9727 31.3705 56.4658 31.3552 55.9884 31.4898C55.511 31.6244 55.086 31.9023 54.7706 32.2863C54.2706 32.9506 54.1824 33.7919 54.1265 34.3528C53.98 35.3053 53.9989 36.2761 54.1824 37.2221C54.1708 37.361 54.1757 37.5007 54.1971 37.6384C54.1971 37.6679 54.1971 37.7063 54.1971 37.7328C53.7295 38.6185 53.1765 39.1469 52.4618 39.3594C51.9332 39.5525 51.3606 39.5893 50.8118 39.4657C49.9295 39.2059 49.4265 38.2111 49.3177 37.3993C49.2858 37.1576 49.276 36.9136 49.2883 36.6701C50.35 36.5077 51.6177 36.0945 52.3206 35.2089C52.5677 34.8959 53.3265 33.9395 53.1736 32.8797C53.128 32.5995 53.0241 32.3322 52.8685 32.0951C52.7129 31.858 52.5091 31.6566 52.2706 31.5041C51.3 30.831 50.1118 31.1646 49.1706 32.3897C48.835 32.8145 48.5762 33.2951 48.4059 33.8096C48.2618 34.2642 48.1118 34.7306 48.0147 35.2059C47.9006 35.125 47.7906 35.0383 47.6853 34.9461C47.524 34.7151 47.4228 34.4472 47.3912 34.1668C47.2677 33.6 47.0971 32.8236 46.3589 32.4428C46.2295 32.3758 46.0832 32.349 45.9386 32.3658C45.7941 32.3826 45.6577 32.4423 45.5471 32.5373C45.0695 32.9443 44.6638 33.4294 44.3471 33.972C44.3138 33.7063 44.2785 33.4406 44.2412 33.1749C44.2303 32.9792 44.1424 32.7958 43.9967 32.6652C43.8511 32.5345 43.6598 32.4673 43.4647 32.4782C43.2697 32.4892 43.0871 32.5775 42.9569 32.7236C42.8267 32.8698 42.7597 33.0618 42.7706 33.2576C42.747 33.9385 42.6221 34.6122 42.4 35.2561C42.3621 34.5258 42.2266 33.804 41.9971 33.11C41.9971 33.0804 41.9971 33.048 41.9765 33.0155C41.8596 32.6278 41.6408 32.2788 41.3433 32.0051C41.0458 31.7314 40.6803 31.543 40.2853 31.4598C39.7788 31.3352 39.2487 31.3459 38.7476 31.491C38.2466 31.636 37.7921 31.9102 37.4295 32.2863C36.5295 33.2576 36.2265 34.5535 36.0618 35.5779C35.903 36.555 35.8795 37.9661 36.6706 39.138C36.9261 39.5155 37.2581 39.8347 37.6447 40.0748C38.0314 40.3148 38.4641 40.4704 38.9147 40.5314C38.4385 41.0421 38.0347 41.6162 37.7148 42.2376C37.4744 42.6897 37.3416 43.1914 37.3268 43.7036C37.312 44.2158 37.4156 44.7244 37.6295 45.1897C37.8314 45.5767 38.1336 45.9018 38.5042 46.1309C38.8748 46.36 39.3001 46.4846 39.7353 46.4915C40.0362 46.4932 40.3332 46.4245 40.603 46.2908C41.9383 45.6177 41.9471 43.8524 41.953 43.1882L41.9765 39.1173C42.4137 38.517 42.8069 37.8856 43.153 37.228C43.1795 37.7801 43.1971 38.3321 43.2 38.8871C43.203 39.4421 43.1824 39.9292 43.2 40.4399C43.2023 40.6333 43.2799 40.8182 43.4162 40.955C43.5525 41.0918 43.7367 41.1697 43.9295 41.172C44.1227 41.1743 44.309 41.0999 44.4479 40.965C44.5867 40.8301 44.6668 40.6456 44.6706 40.4517C44.6853 39.938 44.6883 39.4244 44.6853 38.9107C44.7442 37.1985 45.0059 35.4952 45.9236 34.2908L45.9677 34.4886C46.0795 35.0022 46.2177 35.6398 46.7412 36.0827C47.0496 36.3733 47.4167 36.5939 47.8177 36.7291C47.8091 37.0251 47.8238 37.3212 47.8618 37.6148C48.0706 39.1882 49.0883 40.5077 50.3942 40.8974C51.2157 41.1092 52.0811 41.0733 52.8824 40.7941C53.8247 40.5025 54.6301 39.8786 55.15 39.0376C55.6358 39.5547 56.2968 39.8706 57.003 39.9232C58.3353 40.003 59.5795 39.0878 60.4353 37.3963C60.5206 38.3469 60.6383 39.2945 60.7795 40.2332C60.8001 40.4289 60.8974 40.6084 61.0499 40.7321C61.2024 40.8559 61.3977 40.9137 61.5927 40.893C61.7877 40.8722 61.9665 40.7746 62.0898 40.6215C62.2131 40.4684 62.2707 40.2725 62.25 40.0767C62.1498 38.4283 62.3268 36.7747 62.7736 35.1852C62.9765 34.4738 63.2736 34.031 63.5706 34.0044C63.6252 33.9998 63.68 34.0078 63.731 34.0278C63.782 34.0477 63.8277 34.0791 63.8648 34.1196C64.1551 34.4331 64.316 34.8457 64.3148 35.2738C64.3128 35.5697 64.2951 35.8654 64.2618 36.1594C64.1971 36.8472 64.1236 37.6354 64.4118 38.3941C64.6134 38.9258 64.9689 39.3847 65.4327 39.7118C65.8964 40.0389 66.4471 40.2191 67.0138 40.2293C67.5805 40.2394 68.1373 40.0791 68.6123 39.7688C69.0874 39.4586 69.4591 39.0127 69.6795 38.4886C69.7209 38.3974 69.7436 38.2987 69.7462 38.1985C69.7487 38.0983 69.7311 37.9986 69.6943 37.9054C69.6575 37.8122 69.6023 37.7274 69.532 37.6562C69.4617 37.5849 69.3778 37.5287 69.2853 37.4908ZM49.8089 34.2435C49.9262 33.8937 50.1033 33.567 50.3324 33.2782C50.5353 33.0184 50.8853 32.6435 51.2148 32.6435C51.2958 32.6425 51.3751 32.6673 51.4412 32.7144C51.6706 32.8738 51.7147 33.0096 51.7353 33.0923C51.7647 33.2871 51.6912 33.6502 51.1853 34.2878C50.8765 34.6804 50.2442 34.9609 49.5618 35.1203C49.6265 34.8074 49.7206 34.5122 49.8089 34.2435ZM40.5 43.141C40.5 44.1712 40.3177 44.7587 39.9618 44.9358C39.6677 45.0893 39.15 44.859 38.9559 44.4812C38.8507 44.2181 38.8053 43.9347 38.8231 43.6518C38.841 43.3688 38.9215 43.0935 39.0589 42.8458C39.3833 42.2531 39.7871 41.7078 40.2589 41.2251L40.3559 41.1159L40.5118 40.9358L40.5 43.141ZM40.5324 37.972C40.386 38.3931 40.0923 38.7465 39.7059 38.9668C39.0883 39.262 38.2736 38.8517 37.8971 38.2937C37.3765 37.5232 37.4059 36.5225 37.5206 35.7934C37.653 34.9786 37.8853 33.9542 38.5148 33.2782C38.6547 33.1348 38.8224 33.0216 39.0075 32.9454C39.1926 32.8693 39.3912 32.8319 39.5912 32.8354C39.7101 32.8352 39.8285 32.8491 39.9442 32.8767C40.0754 32.8999 40.1993 32.9543 40.3052 33.0355C40.4111 33.1167 40.4961 33.2222 40.553 33.3432L40.5324 37.972ZM55.5883 34.4886C55.5929 34.0217 55.7154 33.5637 55.9442 33.1572C56.1472 32.9678 56.414 32.8624 56.6912 32.862C56.7495 32.8599 56.8076 32.87 56.8618 32.8915C56.967 32.9296 57.06 32.9955 57.1309 33.0823C57.2018 33.1691 57.2481 33.2735 57.2648 33.3845C57.3148 34.1196 56.6942 34.9845 55.5 35.8701C55.5048 35.4083 55.5343 34.9472 55.5883 34.4886Z" fill="white"/>
</g>
<defs>
<clipPath id="clip0_3665_1229">
<rect width="80" height="80" fill="white"/>
</clipPath>
</defs>
</svg>
